<svg id="Icon_Instagram" data-name="Icon / Instagram" xmlns="http://www.w3.org/2000/svg" width="20.457" height="20.457" viewBox="0 0 20.457 20.457">
  <g id="Icons">
    <path id="Path_77275" data-name="Path 77275" d="M39.479,23h-12.5A3.978,3.978,0,0,0,23,26.978v12.5a3.978,3.978,0,0,0,3.978,3.978h12.5a3.978,3.978,0,0,0,3.978-3.978v-12.5A3.978,3.978,0,0,0,39.479,23Zm1.137,2.358h.449v3.466H37.61V25.358Zm-10.3,5.773a3.591,3.591,0,1,1-.682,2.1,3.591,3.591,0,0,1,.682-2.1Zm11.155,8.348a1.96,1.96,0,0,1-1.989,1.978h-12.5a1.96,1.96,0,0,1-1.983-1.978V31.132h3.052a5.592,5.592,0,1,0,10.365,0h3.057Z" transform="translate(-23 -23)"/>
  </g>
</svg>
