<svg id="Icon_Linkedin" data-name="Icon / Linkedin" xmlns="http://www.w3.org/2000/svg" width="17.918" height="16.476" viewBox="0 0 17.918 16.476">
  <g id="Icons">
    <path id="Path_145873" data-name="Path 145873" d="M26.947,39.283H23.463V28.095h3.484ZM25.11,26.7h-.025a1.948,1.948,0,1,1,.05-3.882A1.949,1.949,0,1,1,25.11,26.7ZM40.918,39.283H36.936V33.495c0-1.493-.617-2.548-1.991-2.548a1.991,1.991,0,0,0-1.891,1.369,2.533,2.533,0,0,0-.085.911v6.057H29.077s.05-10.253,0-11.184H33v1.772a3.592,3.592,0,0,1,3.484-1.861c2.489,0,4.435,1.608,4.435,5.072Z" transform="translate(-23 -22.808)"/>
  </g>
</svg>
