<svg id="Icon_Time" data-name="Icon / Time" xmlns="http://www.w3.org/2000/svg" width="34.268" height="34.268" viewBox="0 0 34.268 34.268">
  <g id="Group_1672" data-name="Group 1672">
    <path id="Path_145880" data-name="Path 145880" d="M22.113,4.979A17.134,17.134,0,1,0,39.247,22.113,17.154,17.154,0,0,0,22.113,4.979Zm0,30.843A13.709,13.709,0,1,1,35.822,22.113,13.725,13.725,0,0,1,22.113,35.822Z" transform="translate(-4.979 -4.979)" fill="#00263e"/>
    <path id="Path_145881" data-name="Path 145881" d="M48.9,33.322a1.709,1.709,0,0,0,.027-.266V25.587a1.713,1.713,0,0,0-3.425,0v7.469c0,.146-.018,1.8.519,2.286l5.3,4.751a1.713,1.713,0,1,0,2.286-2.55Z" transform="translate(-30.079 -16.683)" fill="#00263e"/>
  </g>
</svg>
