<svg id="Layer_1" data-name="Layer 1" xmlns="http://www.w3.org/2000/svg" xmlns:xlink="http://www.w3.org/1999/xlink" viewBox="0 0 672.5 498.36"><defs><style>.cls-1{fill:none;}.cls-2{fill:#e6f3ff;}.cls-3{clip-path:url(#clip-path);}</style><clipPath id="clip-path"><path class="cls-1" d="M-1588.55,401.57c75.73-67.44-66.85-276.42,32.5-263.75C-1505,144.33-1289.81,10-1246,37.52c54.29,34.14,297.07-10.8,363.75,2.16,85.91,16.69,319,28,406.5,30.51,67.05,1.92-51.73,485.89-2.38,531.32,92.88,85.5,161.57,221.9,131.48,350.1-28.64,122-140.78,183.84-259.42,190-273.64,14.24-485.56,318.63-772,222.93-175.61-58.66-270.85-246.2-292.51-420.06-28.79-231-20.76-451.37,82-542.92"/></clipPath></defs><path class="cls-2" d="M50.27,306.52C9,166.28,115.22,73.35,275.08,35.22c133-31.7,267.63,17.16,323.23,118,65.68,119.19,43.78,258-166,308.2-116.51,27.89-332.36,13.71-382-154.93"/></svg>