<svg width="47" height="62" viewBox="0 0 47 62" fill="none" xmlns="http://www.w3.org/2000/svg">
<path d="M14.9366 20.49C15.3166 20.49 15.7066 20.49 16.0966 20.49C17.6398 20.6463 19.1724 20.8934 20.6866 21.23C21.0335 21.2893 21.3847 21.3194 21.7366 21.32C23.0403 21.227 24.3344 21.0297 25.6066 20.73C26.6679 20.5561 27.7412 20.4658 28.8166 20.46C30.8369 20.4225 32.8365 20.8718 34.6466 21.77C36.9515 22.9712 38.794 24.9016 39.8866 27.26C41.151 29.8901 41.8332 32.7621 41.8866 35.68C41.8866 36.54 41.8866 37.4 41.8866 38.25C41.7707 41.2288 41.1415 44.1652 40.0266 46.93C38.7826 50.2555 36.5926 53.1442 33.7266 55.24C32.5073 56.1303 31.1127 56.7512 29.6352 57.0616C28.1577 57.3719 26.631 57.3645 25.1566 57.04C24.0801 56.8228 22.9848 56.7123 21.8866 56.71C20.7685 56.7122 19.6533 56.8227 18.5566 57.04C17.8019 57.1856 17.0352 57.2592 16.2666 57.26C14.6316 57.2373 13.0201 56.8672 11.5391 56.1741C10.0581 55.481 8.74149 54.4808 7.6766 53.24C4.7603 49.9903 2.84971 45.9641 2.1766 41.65C2.0366 40.9 1.9666 40.15 1.8666 39.4C1.52984 35.8991 1.94582 32.3668 3.0866 29.04C3.57802 27.4413 4.39132 25.9602 5.47648 24.6876C6.56164 23.4149 7.8957 22.3778 9.3966 21.64C11.1364 20.8545 13.0279 20.4619 14.9366 20.49ZM14.9366 18.74C12.7726 18.7005 10.6271 19.1446 8.6566 20.04C5.2866 21.6 2.9266 24.33 1.4466 28.37C0.204898 31.9508 -0.245452 35.7583 0.126596 39.53V39.64C0.126596 39.87 0.186596 40.1 0.206596 40.33C0.276596 40.86 0.346596 41.41 0.446596 41.97C1.17894 46.6126 3.24629 50.9419 6.3966 54.43C7.89366 56.2131 9.84411 57.5594 12.0423 58.3267C14.2405 59.0941 16.605 59.2541 18.8866 58.79C19.8751 58.5982 20.8797 58.5011 21.8866 58.5C22.8675 58.5018 23.8458 58.6023 24.8066 58.8C25.6618 58.9782 26.533 59.0687 27.4066 59.07C30.0361 59.056 32.5955 58.2204 34.7266 56.68C37.8633 54.398 40.2594 51.2438 41.6166 47.61C42.8031 44.6729 43.4795 41.5547 43.6166 38.39V37.46C43.6166 36.86 43.6166 36.26 43.6166 35.65C43.5583 32.486 42.8181 29.3718 41.4466 26.52C40.2031 23.8159 38.0911 21.6054 35.4466 20.24C33.3922 19.2272 31.1268 18.7165 28.8366 18.75C27.6607 18.7522 26.4869 18.8491 25.3266 19.04C24.8966 19.11 24.4766 19.2 24.0466 19.28C23.2894 19.4661 22.5156 19.5767 21.7366 19.61C21.4981 19.6115 21.2602 19.5881 21.0266 19.54C20.6466 19.48 20.2766 19.4 19.9066 19.33C18.6933 19.0661 17.464 18.8824 16.2266 18.78C15.7966 18.78 15.3666 18.78 14.9566 18.78L14.9366 18.74Z" fill="#424B5A"/>
<path d="M33.2365 1.79C33.3765 1.79 33.4965 1.84 33.5065 2.08C33.5965 4.13 34.0565 6.18 33.7565 8.25C33.5134 9.76598 32.7874 11.163 31.6865 12.2332C30.5857 13.3034 29.1688 13.9897 27.6465 14.19C26.0265 14.37 24.3865 14.45 22.7665 14.58H22.6065C22.4665 14.58 22.3565 14.58 22.3465 14.3C22.1529 12.553 22.0461 10.7975 22.0265 9.04C22.5765 5.04 25.1865 2.55 28.6065 2.21C30.0265 2.04 31.5265 1.92 33.0265 1.81H33.2565M33.2565 0.06H32.9065L32.0265 0.13C30.8465 0.21 29.6265 0.3 28.4265 0.42C24.1165 0.84 20.9165 4.11 20.2865 8.76C20.2244 9.85924 20.278 10.962 20.4465 12.05C20.5365 12.8 20.6165 13.58 20.6565 14.33C20.6565 14.8604 20.8672 15.3691 21.2423 15.7442C21.6174 16.1193 22.1261 16.33 22.6565 16.33H22.9465L24.6465 16.2C25.7065 16.13 26.7965 16.05 27.8965 15.93C29.8055 15.6901 31.5844 14.8353 32.9646 13.4948C34.3447 12.1544 35.251 10.4011 35.5465 8.5C35.7114 6.98267 35.6845 5.45062 35.4665 3.94C35.3965 3.27 35.3265 2.63 35.3065 2C35.3065 1.46957 35.0958 0.960859 34.7207 0.585786C34.3457 0.210714 33.837 0 33.3065 0L33.2565 0.06Z" fill="#424B5A"/>
</svg>
