<svg width="736" height="408" viewBox="0 0 736 408" fill="none" xmlns="http://www.w3.org/2000/svg">
<mask id="mask0_201_443" style="mask-type:alpha" maskUnits="userSpaceOnUse" x="0" y="0" width="736" height="408">
<rect y="408" width="408" height="736" rx="24" transform="rotate(-90 0 408)" fill="white"/>
</mask>
<g mask="url(#mask0_201_443)">
<path opacity="0.75" d="M380.381 214.29C347.878 137.059 400.761 86.5305 298.354 51.8912C195.948 17.2518 176.51 -88.3445 233.29 -145.625C326.494 -239.689 497.465 -164.397 494.213 -18.6757C490.962 127.046 586.893 126.792 547.52 230.295C529.945 276.747 425.254 320.834 380.195 213.929" fill="#174CBB"/>
<path opacity="0.5" d="M190.66 249.55C180.947 212.518 141.732 222.734 132.666 243.617C127.104 256.428 129.898 269.229 140.292 278.557C157.184 293.719 195.046 266.151 190.66 249.55Z" fill="#246DFF"/>
<path opacity="0.5" d="M489.409 254.439C425.095 289.014 376.894 247.31 355.3 339.008C333.707 430.707 243.707 456.288 189.327 411.762C100.031 338.674 151.228 184.139 277.911 174.927C404.593 165.714 396.452 82.5153 489.492 108.125C531.24 119.536 578.13 206.715 489.111 254.631" fill="#A8C3E4"/>
</g>
</svg>
