<svg width="64" height="64" viewBox="0 0 64 64" fill="none" xmlns="http://www.w3.org/2000/svg">
    <path d="M55 49v8H32m23-8h2v-3.5h-3.5M55 49h-5.75M9 49v8h11.5M9 49H7v-3.5h2M9 49h34.5M9 45.5v-8m0 8h10M9 31H7v-3.5h2M9 31v6.5M9 31h4.875M28.5 31h2v-3.5h-4m2 3.5v6.5m0-6.5h-9.75m9.75 14.5v-8m0 8H25m3.5 0h5M9 27.5v-3h3.5v3m-3.5 0h3.5m0 0H16m0 0v-3h3.5v3m-3.5 0h3.5m0 0H23m0 0v-3h3.5v3m-3.5 0h3.5M9 37.5h3m16.5 0h-13m-3.5 0V34m0 3.5h3.5m0 0V34M19 45.5V42m0 3.5h3m0 0V42m0 3.5h3m0 0V42m8.5 3.5v-5m0 5h7m0 0v-5m0 5h7m-16-5h11m5 5v-5m0 5h6m0 0v-5m-8 0h10M7 8h10m40 0H47M17 8v4m0-4h20m-20 4-4 5h8l-4-5zm15-4v4m0 0-4 5h8l-4-5zm15-4v4m0-4h-5m5 4-4 5h8l-4-5zM34 37.5s-.558-.885-.5-1.5c.134-1.415 2.69.169 3.5-1 1.144-1.653-3.505-2.759-2.5-4.5.569-.986 1.719-.672 2.5-1.5.483-.512 1-1.5 1-1.5M40.5 38c.781-.586 1.756-.555 2-1.5.312-1.21-2.005-1.25-2-2.5.006-1.525 2.825-.985 3-2.5.12-1.045-1-2.5-1-2.5m4.5 8.5s-.559-.885-.5-1.5c.134-1.415 2.69.169 3.5-1 1.144-1.653-3.505-2.759-2.5-4.5.569-.986 1.719-.672 2.5-1.5.483-.512 1-1.5 1-1.5M53.5 38c.78-.586 1.756-.555 2-1.5.312-1.21-2.005-1.25-2-2.5.006-1.525 2.825-.985 3-2.5.12-1.045-1-2.5-1-2.5" stroke="#424B5A" stroke-width="1.75" stroke-linecap="round" stroke-linejoin="round"/>
</svg>
