<svg width="64" height="64" viewBox="0 0 64 64" fill="none" xmlns="http://www.w3.org/2000/svg">
<path fill-rule="evenodd" clip-rule="evenodd" d="M40.0401 11.875C29.3948 11.875 20.7651 20.5047 20.7651 31.15C20.7651 41.7953 29.3948 50.425 40.0401 50.425C50.6854 50.425 59.3151 41.7953 59.3151 31.15C59.3151 20.5047 50.6854 11.875 40.0401 11.875ZM19.0151 31.15C19.0151 19.5382 28.4283 10.125 40.0401 10.125C51.6519 10.125 61.0651 19.5382 61.0651 31.15C61.0651 42.7618 51.6519 52.175 40.0401 52.175C28.4283 52.175 19.0151 42.7618 19.0151 31.15Z" fill="#424B5A"/>
<path fill-rule="evenodd" clip-rule="evenodd" d="M47.711 20.0014C44.9932 18.1226 41.6816 17.3037 38.4014 17.6991C35.1211 18.0946 32.0991 19.677 29.9056 22.1479C27.7121 24.6187 26.499 27.807 26.4951 31.111C26.4945 31.5943 26.1023 31.9856 25.6191 31.985C25.1358 31.9844 24.7446 31.5922 24.7451 31.109C24.7495 27.3775 26.1196 23.7767 28.5969 20.9861C31.0742 18.1955 34.4872 16.4083 38.1919 15.9617C41.8966 15.5151 45.6366 16.44 48.7061 18.5619C51.7756 20.6838 53.9622 23.8559 54.8532 27.4794C55.7443 31.103 55.2781 34.9274 53.5427 38.2308C51.8073 41.5342 48.9228 44.0881 45.4334 45.4105C41.9441 46.7329 38.0914 46.7323 34.6025 45.4089C31.1136 44.0854 28.2298 41.5306 26.4954 38.2267C26.2708 37.7988 26.4355 37.2699 26.8634 37.0453C27.2913 36.8207 27.8202 36.9854 28.0449 37.4133C29.5806 40.3387 32.134 42.6008 35.2232 43.7727C38.3124 44.9445 41.7237 44.945 44.8132 43.7741C47.9028 42.6032 50.4569 40.3419 51.9935 37.4169C53.53 34.492 53.9428 31.1057 53.1539 27.8973C52.3649 24.6889 50.4288 21.8802 47.711 20.0014Z" fill="#424B5A"/>
<path fill-rule="evenodd" clip-rule="evenodd" d="M7.23022 10.355C7.71347 10.355 8.10522 10.7467 8.10522 11.23V24.34C8.10522 24.8232 7.71347 25.215 7.23022 25.215C6.74698 25.215 6.35522 24.8232 6.35522 24.34V11.23C6.35522 10.7467 6.74698 10.355 7.23022 10.355Z" fill="#424B5A"/>
<path fill-rule="evenodd" clip-rule="evenodd" d="M12.0601 10.355C12.5433 10.355 12.9351 10.7467 12.9351 11.23V24.34C12.9351 24.8232 12.5433 25.215 12.0601 25.215C11.5768 25.215 11.1851 24.8232 11.1851 24.34V11.23C11.1851 10.7467 11.5768 10.355 12.0601 10.355Z" fill="#424B5A"/>
<path fill-rule="evenodd" clip-rule="evenodd" d="M7.01514 26.1861L8.25489 26.7546C8.7146 26.9655 9.21439 27.0746 9.72014 27.0746C10.2259 27.0746 10.7257 26.9655 11.1854 26.7546L12.4251 26.1861V39.35C12.4251 39.8332 12.0334 40.225 11.5501 40.225C11.0669 40.225 10.6751 39.8332 10.6751 39.35V28.7373C10.361 28.7952 10.0414 28.8246 9.72014 28.8246C9.3989 28.8246 9.07927 28.7952 8.76514 28.7373V49.32C8.76514 49.5733 8.86575 49.8162 9.04485 49.9953C9.22395 50.1744 9.46686 50.275 9.72014 50.275C9.97342 50.275 10.2163 50.1744 10.3954 49.9953C10.5745 49.8162 10.6751 49.5733 10.6751 49.32V43.79C10.6751 43.3068 11.0669 42.915 11.5501 42.915C12.0334 42.915 12.4251 43.3068 12.4251 43.79V49.32C12.4251 50.0374 12.1401 50.7254 11.6329 51.2327C11.1256 51.74 10.4375 52.025 9.72014 52.025C9.00273 52.025 8.3147 51.74 7.80741 51.2327C7.30013 50.7254 7.01514 50.0374 7.01514 49.32V26.1861Z" fill="#424B5A"/>
<path fill-rule="evenodd" clip-rule="evenodd" d="M16.4365 10.42C16.917 10.3683 17.3484 10.7159 17.4001 11.1964L18.3252 19.7942L18.3251 19.8422C18.3192 22.122 17.411 24.3068 15.7989 25.9188C14.1869 27.5309 12.0022 28.4391 9.72237 28.445L9.72012 27.57L9.71674 28.445C7.43888 28.4362 5.25701 27.5266 3.64735 25.9149C2.0377 24.3032 1.13098 22.1201 1.12512 19.8422L1.125 19.7947L2.04003 11.1974C2.09118 10.7168 2.52219 10.3688 3.00273 10.4199C3.48326 10.471 3.83135 10.9021 3.78021 11.3826L2.87539 19.8839C2.89208 21.6829 3.6134 23.4044 4.88559 24.6783C6.16798 25.9623 7.90601 26.6872 9.72066 26.695C11.5369 26.6896 13.2772 25.9657 14.5615 24.6814C15.8355 23.4074 16.558 21.6847 16.5748 19.8844L15.6601 11.3836C15.6084 10.9031 15.956 10.4717 16.4365 10.42Z" fill="#424B5A"/>
</svg>
