<svg width="68" height="64" viewBox="0 0 68 64" fill="none" xmlns="http://www.w3.org/2000/svg">
<path fill-rule="evenodd" clip-rule="evenodd" d="M10.7419 49.186C11.1888 49.002 11.7002 49.2152 11.8841 49.6621C12.7991 51.8854 14.0977 53.9306 15.7205 55.7045C16.0467 56.061 16.0221 56.6145 15.6656 56.9407C15.309 57.2669 14.7555 57.2423 14.4293 56.8857C12.6681 54.9606 11.2589 52.741 10.2658 50.3281C10.0819 49.8812 10.295 49.3699 10.7419 49.186Z" fill="#424B5A"/>
<path fill-rule="evenodd" clip-rule="evenodd" d="M6.57007 26.9951C6.57007 26.5119 6.96182 26.1201 7.44507 26.1201H52.7751C53.2583 26.1201 53.6501 26.5119 53.6501 26.9951C53.6501 27.4784 53.2583 27.8701 52.7751 27.8701H8.32007V38.4966L8.32074 38.5025C8.32473 38.5373 8.33089 38.5899 8.33937 38.6584C8.35633 38.7955 8.38251 38.9964 8.41896 39.2476C8.49195 39.7504 8.60572 40.4519 8.76843 41.2441C9.09806 42.849 9.61308 44.7469 10.3561 46.1314C10.5846 46.5572 10.4246 47.0876 9.99883 47.3161C9.57303 47.5446 9.0426 47.3847 8.81408 46.9589C7.94705 45.3433 7.39208 43.2412 7.05421 41.5962C6.88317 40.7634 6.76382 40.0274 6.68711 39.4989C6.64872 39.2345 6.62092 39.0213 6.6026 38.8732C6.59345 38.7992 6.58665 38.7414 6.58209 38.7015L6.5769 38.6553L6.57552 38.6427L6.57501 38.638C6.575 38.6379 6.57494 38.6374 7.44507 38.5451L6.57501 38.638C6.57177 38.6074 6.57007 38.5759 6.57007 38.5451V26.9951Z" fill="#424B5A"/>
<path fill-rule="evenodd" clip-rule="evenodd" d="M48.02 26.9951C48.02 26.5119 48.4118 26.1201 48.895 26.1201H54.6773C57.9702 26.1286 61.1259 27.4398 63.4554 29.7672C65.7848 32.0946 67.0987 35.2492 67.11 38.5421V38.5481C67.0987 41.841 65.7848 44.9956 63.4554 47.3231C61.1259 49.6505 57.9702 50.9616 54.6773 50.9701L54.675 50.9701H49.115C48.6318 50.9701 48.24 50.5784 48.24 50.0951C48.24 49.6119 48.6318 49.2201 49.115 49.2201H54.6742C57.5043 49.2124 60.2164 48.0854 62.2185 46.0851C64.2201 44.0851 65.3495 41.3746 65.36 38.5451C65.3495 35.7156 64.2201 33.0051 62.2185 31.0052C60.2163 29.0047 57.5041 27.8777 54.6739 27.8701H48.895C48.4118 27.8701 48.02 27.4784 48.02 26.9951Z" fill="#424B5A"/>
<path fill-rule="evenodd" clip-rule="evenodd" d="M59.5552 34.1342C59.9479 33.8526 60.4945 33.9427 60.7761 34.3354C61.6536 35.5592 62.1237 37.028 62.1201 38.5336C62.1716 40.3129 61.5199 42.0411 60.3057 43.3432C59.0879 44.6492 57.4031 45.4208 55.6188 45.4896C55.6075 45.4901 55.5963 45.4903 55.585 45.4903H51.395C50.9118 45.4903 50.52 45.0985 50.52 44.6153C50.52 44.132 50.9118 43.7403 51.395 43.7403H55.5675C56.8842 43.6852 58.1267 43.114 59.0258 42.1498C59.9285 41.1816 60.4119 39.8958 60.3704 38.5727L61.245 38.5453L60.37 38.5413C60.3753 37.3987 60.0197 36.2837 59.3539 35.3551C59.0723 34.9624 59.1624 34.4158 59.5552 34.1342Z" fill="#424B5A"/>
<path fill-rule="evenodd" clip-rule="evenodd" d="M51.8799 32.4651C51.8799 31.9818 52.2716 31.5901 52.7549 31.5901H55.5887C56.7045 31.5949 57.7984 31.9006 58.7552 32.4749C59.1695 32.7236 59.3038 33.2611 59.0551 33.6754C58.8064 34.0897 58.2689 34.224 57.8546 33.9753C57.1682 33.5633 56.3834 33.3439 55.5829 33.3401H52.7549C52.2716 33.3401 51.8799 32.9483 51.8799 32.4651Z" fill="#424B5A"/>
<path fill-rule="evenodd" clip-rule="evenodd" d="M49.1851 49.245C49.5995 49.4936 49.7338 50.0311 49.4851 50.4455C48.1032 52.7483 46.4755 54.8944 44.6308 56.8463C44.2989 57.1975 43.7451 57.2131 43.3938 56.8812C43.0426 56.5492 43.027 55.9954 43.359 55.6442C45.1168 53.7843 46.6678 51.7393 47.9846 49.545C48.2333 49.1306 48.7708 48.9963 49.1851 49.245Z" fill="#424B5A"/>
<path fill-rule="evenodd" clip-rule="evenodd" d="M52.775 31.5901C53.2583 31.5901 53.65 31.9818 53.65 32.4651V38.5451C53.65 38.5856 53.6472 38.626 53.6416 38.6662C53.3641 40.6523 52.8879 42.6055 52.2201 44.4965C52.0591 44.9521 51.5593 45.1911 51.1036 45.0301C50.648 44.8692 50.409 44.3694 50.57 43.9137C51.192 42.1522 51.6376 40.3333 51.9 38.4838V32.4651C51.9 31.9818 52.2918 31.5901 52.775 31.5901Z" fill="#424B5A"/>
<path fill-rule="evenodd" clip-rule="evenodd" d="M0.26001 56.2451C0.26001 55.7619 0.651761 55.3701 1.13501 55.3701H59.125C59.6083 55.3701 60 55.7619 60 56.2451C60 56.7284 59.6083 57.1201 59.125 57.1201H1.13501C0.651761 57.1201 0.26001 56.7284 0.26001 56.2451Z" fill="#424B5A"/>
<path fill-rule="evenodd" clip-rule="evenodd" d="M21.9793 9.02752L21.9602 9.03407C21.9413 9.04074 21.9092 9.05237 21.8663 9.06926C21.7802 9.10317 21.6522 9.15755 21.4996 9.2346C21.19 9.39085 20.8018 9.62875 20.4543 9.95941C20.1096 10.2874 19.8211 10.6907 19.6696 11.1856C19.5208 11.6723 19.4836 12.3143 19.7415 13.1633C19.9316 13.7842 20.37 14.1766 21.0589 14.7932C21.1468 14.8718 21.2387 14.9541 21.3347 15.041C22.1246 15.7557 23.0773 16.7302 23.1442 18.4153C23.2106 20.0895 22.3047 21.2909 21.5037 22.0163C21.0978 22.3837 20.6928 22.6546 20.3908 22.8336C20.2387 22.9238 20.1097 22.9924 20.0158 23.0399C19.9687 23.0637 19.9302 23.0822 19.9016 23.0956L19.8664 23.1119L19.8547 23.1172L19.8504 23.1191L19.8487 23.1199C19.8483 23.12 19.8471 23.1205 19.445 22.205L19.8471 23.1205C19.3415 23.3427 18.7515 23.1128 18.5294 22.6072C18.3078 22.1027 18.5361 21.5142 19.0394 21.2909C19.04 21.2906 19.0406 21.2904 19.0413 21.2901C19.0415 21.29 19.041 21.2902 19.0413 21.2901C19.0406 21.2904 19.04 21.2906 19.0394 21.2909L19.0511 21.2855C19.0636 21.2796 19.0851 21.2693 19.1144 21.2545C19.1731 21.2249 19.2621 21.1777 19.3709 21.1132C19.5908 20.9829 19.8796 20.7887 20.1613 20.5337C20.7352 20.014 21.1793 19.3405 21.1457 18.4946C21.1126 17.6598 20.7004 17.1642 19.9928 16.524C19.9157 16.4543 19.8323 16.3811 19.7444 16.304C19.0926 15.7325 18.195 14.9454 17.8287 13.7474L17.8282 13.7458C17.4663 12.5552 17.4804 11.505 17.7571 10.6006C18.0313 9.70425 18.5428 9.01754 19.0756 8.51054C19.6056 8.0062 20.1724 7.6641 20.5985 7.4491C20.8136 7.34053 20.9986 7.26147 21.1335 7.20834C21.2011 7.18172 21.2566 7.16144 21.2975 7.14707C21.318 7.13988 21.3348 7.13416 21.3478 7.12986L21.3643 7.12445L21.3703 7.12252L21.3727 7.12175L21.3737 7.12142C21.3742 7.12126 21.3747 7.12111 21.675 8.07497L21.3747 7.12111C21.9015 6.95529 22.463 7.24792 22.6288 7.77473C22.7942 8.30014 22.5035 8.86006 21.9793 9.02752Z" fill="#424B5A"/>
<path fill-rule="evenodd" clip-rule="evenodd" d="M43.3016 9.02752L43.2825 9.03407C43.2635 9.04074 43.2315 9.05237 43.1886 9.06926C43.1025 9.10317 42.9745 9.15755 42.8218 9.2346C42.5122 9.39085 42.1241 9.62875 41.7766 9.95941C41.4319 10.2874 41.1433 10.6907 40.9919 11.1856C40.843 11.6723 40.8059 12.3143 41.0637 13.1633C41.2539 13.7842 41.6923 14.1766 42.3812 14.7932C42.469 14.8718 42.5609 14.9541 42.6569 15.041C43.4468 15.7557 44.3996 16.7302 44.4664 18.4153C44.5329 20.0895 43.627 21.2909 42.8259 22.0163C42.4201 22.3837 42.0151 22.6546 41.7131 22.8336C41.561 22.9238 41.432 22.9924 41.338 23.0399C41.2909 23.0637 41.2524 23.0822 41.2239 23.0956L41.1887 23.1119L41.177 23.1172L41.1727 23.1191L41.1709 23.1199C41.1706 23.12 41.1694 23.1205 40.7672 22.205L41.1694 23.1205C40.6638 23.3427 40.0738 23.1128 39.8517 22.6072C39.63 22.1027 39.8584 21.5142 40.3616 21.2909C40.3623 21.2906 40.3629 21.2904 40.3636 21.2901C40.3638 21.29 40.3633 21.2902 40.3636 21.2901C40.3629 21.2904 40.3623 21.2906 40.3616 21.2909L40.3734 21.2855C40.3858 21.2796 40.4074 21.2693 40.4367 21.2545C40.4954 21.2249 40.5844 21.1777 40.6932 21.1132C40.9131 20.9829 41.2019 20.7887 41.4835 20.5337C42.0574 20.014 42.5016 19.3405 42.468 18.4946C42.4349 17.6598 42.0226 17.1642 41.315 16.524C41.238 16.4543 41.1545 16.3811 41.0666 16.304C40.4149 15.7325 39.5173 14.9454 39.1509 13.7474L39.1504 13.7458C38.7886 12.5552 38.8027 11.505 39.0794 10.6006C39.3536 9.70425 39.8651 9.01754 40.3979 8.51054C40.9279 8.0062 41.4947 7.6641 41.9207 7.4491C42.1359 7.34053 42.3209 7.26147 42.4558 7.20834C42.5234 7.18172 42.5789 7.16144 42.6198 7.14707C42.6402 7.13988 42.6571 7.13416 42.6701 7.12986L42.6865 7.12445L42.6925 7.12252L42.6949 7.12175L42.696 7.12142C42.6965 7.12126 42.697 7.12111 42.9972 8.07497L42.697 7.12111C43.2238 6.95529 43.7853 7.24792 43.9511 7.77473C44.1165 8.30014 43.8258 8.86006 43.3016 9.02752Z" fill="#424B5A"/>
<path fill-rule="evenodd" clip-rule="evenodd" d="M59.3578 55.4102C59.841 55.4117 60.2315 55.8047 60.23 56.2879C60.224 58.1883 59.4664 60.0091 58.1227 61.3528C56.7789 62.6966 54.9581 63.4541 53.0578 63.4602L53.055 63.4602H7.16085C5.26248 63.4512 3.44459 62.6922 2.10329 61.3488C0.761992 60.0054 0.00598621 58.1863 0 56.2879L1.74999 56.2824C1.75452 57.719 2.32665 59.0957 3.34171 60.1124C4.35629 61.1286 5.73121 61.7028 7.16711 61.7102H53.0535C54.4912 61.7053 55.8686 61.132 56.8852 60.1154C57.9021 59.0985 58.4755 57.7205 58.48 56.2824C58.4815 55.7991 58.8745 55.4086 59.3578 55.4102Z" fill="#424B5A"/>
<path fill-rule="evenodd" clip-rule="evenodd" d="M25.6738 45.3403C26.2394 46.8001 27.2081 47.7515 28.3736 48.0468C29.5391 48.3422 30.844 47.9669 32.0365 46.9527C33.2273 45.94 34.2404 44.3342 34.7402 42.3616C35.2401 40.389 35.1141 38.4945 34.5493 37.0369C33.9837 35.5772 33.015 34.6257 31.8495 34.3304C30.684 34.0351 29.3791 34.4103 28.1866 35.4245C26.9958 36.4372 25.9827 38.0431 25.4829 40.0157C24.983 41.9883 25.109 43.8828 25.6738 45.3403ZM24.042 45.9726C23.3314 44.1387 23.2078 41.8693 23.7865 39.5858C24.3651 37.3023 25.5546 35.3656 27.0528 34.0914C28.5493 32.8188 30.42 32.1628 32.2794 32.634C34.1387 33.1052 35.4713 34.5729 36.1811 36.4046C36.8917 38.2386 37.0153 40.5079 36.4366 42.7915C35.8579 45.075 34.6685 47.0116 33.1703 48.2858C31.6738 49.5585 29.8031 50.2144 27.9437 49.7432C26.0844 49.272 24.7518 47.8044 24.042 45.9726Z" fill="#424B5A"/>
<path fill-rule="evenodd" clip-rule="evenodd" d="M30.8362 32.9465C31.1779 32.6048 31.732 32.6048 32.0737 32.9465L31.4549 33.5652C32.0737 32.9465 32.0741 32.9469 32.0745 32.9473L32.0754 32.9482L32.0774 32.9502L32.082 32.9549L32.094 32.9673C32.1032 32.9769 32.1146 32.989 32.1281 33.0037C32.155 33.0332 32.1903 33.0731 32.2319 33.1233C32.3151 33.2236 32.4243 33.3657 32.5439 33.5488C32.783 33.9145 33.0665 34.4475 33.2657 35.1392C33.6707 36.5449 33.7034 38.5228 32.4651 40.9614L32.4647 40.9622C31.7017 42.4605 30.6369 43.0818 29.8071 43.5661C29.7447 43.6025 29.6835 43.6382 29.6239 43.6734C29.1962 43.9263 28.8745 44.1378 28.6093 44.4232C28.3568 44.695 28.1239 45.07 27.9602 45.6815C27.9518 45.7126 27.9418 45.7432 27.9301 45.7732C27.7654 46.1954 27.7448 46.6602 27.8717 47.0953C27.9985 47.5304 28.2657 47.9114 28.6315 48.1789C29.0215 48.4642 29.1065 49.0116 28.8212 49.4017C28.536 49.7918 27.9885 49.8767 27.5984 49.5915C26.9211 49.0961 26.4265 48.3907 26.1916 47.5851C25.9614 46.7955 25.9934 45.9529 26.282 45.1835C26.5138 44.3431 26.8724 43.7216 27.3272 43.2322C27.7773 42.7476 28.2899 42.4291 28.7335 42.1669C28.7883 42.1345 28.8424 42.1027 28.896 42.0713C29.7129 41.5914 30.3798 41.1997 30.905 40.1686C31.9465 38.1174 31.8641 36.5954 31.5841 35.6237C31.4409 35.1266 31.2394 34.7515 31.0791 34.5063C30.9991 34.3839 30.93 34.2948 30.8848 34.2403C30.8622 34.2131 30.8458 34.1947 30.8371 34.1852L30.8305 34.1782C30.4945 33.836 30.4964 33.2863 30.8362 32.9465Z" fill="#424B5A"/>
<path fill-rule="evenodd" clip-rule="evenodd" d="M31.8052 1.64811C31.8052 1.64811 31.8052 1.64811 31.8052 1.64811L31.8053 1.64805L31.8058 1.64778L31.8067 1.64731L31.8071 1.64709L31.807 1.64716C31.8064 1.64746 31.8059 1.64776 31.8053 1.64805C31.8053 1.64807 31.8052 1.64809 31.8052 1.64811ZM31.807 1.64716L31.8027 1.64949C31.7975 1.65235 31.7878 1.65775 31.774 1.66567C31.7464 1.68153 31.7024 1.70745 31.6451 1.74343C31.5301 1.81553 31.3625 1.92722 31.1653 2.07847C30.7685 2.38288 30.266 2.83674 29.8288 3.43752C28.9792 4.60514 28.3402 6.36222 29.3185 8.83263L28.5056 9.15497L29.3186 8.83298C29.6979 9.78928 30.163 10.4656 30.6718 11.2054C30.8809 11.5095 31.0974 11.8244 31.3184 12.1738C32.0649 13.3542 32.6835 14.712 32.7396 16.856C32.7901 18.1017 32.5406 19.3414 32.0122 20.4707C31.4828 21.6022 30.6888 22.5896 29.6974 23.3496C29.3139 23.6436 28.7647 23.5711 28.4707 23.1875C28.1766 22.804 28.2492 22.2548 28.6327 21.9608C29.4013 21.3716 30.0167 20.6061 30.4271 19.729C30.8376 18.8519 31.0309 17.8889 30.9908 16.9214L30.9903 16.9075L30.9904 16.9075C30.9453 15.1454 30.4595 14.0899 29.8393 13.1091C29.6836 12.8629 29.5073 12.6066 29.3209 12.3355C28.7781 11.5462 28.1493 10.6317 27.6917 9.47772L27.6916 9.47738C26.4601 6.36797 27.266 3.98515 28.4138 2.40783C28.9754 1.63611 29.6097 1.06622 30.1001 0.690001C30.3466 0.500945 30.5602 0.358105 30.7155 0.260747C30.7932 0.212002 30.8566 0.174461 30.9026 0.148047C30.9257 0.134833 30.9443 0.124386 30.9583 0.116696L30.9757 0.107221L30.9816 0.104027L30.9839 0.102815L30.9848 0.102306C30.9853 0.102078 30.9857 0.101861 31.3951 0.875175L30.9857 0.101861C31.4128 -0.124246 31.9423 0.0386835 32.1684 0.465773C32.3941 0.892028 32.2322 1.42031 31.807 1.64716Z" fill="#424B5A"/>
</svg>
