<svg width="256" height="400" viewBox="0 0 256 400" fill="none" xmlns="http://www.w3.org/2000/svg">
<mask id="mask0_163_1889" style="mask-type:alpha" maskUnits="userSpaceOnUse" x="0" y="0" width="256" height="400">
<rect width="256" height="400" rx="24" fill="white"/>
</mask>
<g mask="url(#mask0_163_1889)">
<path opacity="0.5" d="M67.1813 365.812C112.631 317.234 166.386 339.196 158.32 253.749C150.253 168.301 220.495 120.005 280.407 142.604C378.779 179.69 379.591 328.003 272.915 372.852C166.24 417.701 197.5 487.152 109.724 492.143C70.3612 494.451 4.49195 432.85 67.3824 365.56" fill="#C7E4A0"/>
<path opacity="0.75" d="M223.839 290.594C193.935 211.671 249.006 162.737 147.188 124.139C45.3702 85.5417 29.6516 -21.4567 88.891 -77.0452C186.134 -168.332 355.486 -86.318 346.905 60.2431C338.325 206.804 434.895 210.043 391.493 312.793C372.11 358.909 265.125 399.472 223.664 290.224" fill="#1A8C25"/>
<path opacity="0.5" d="M145.908 341.666C174.824 316.574 148.316 285.923 125.576 287.029C111.627 287.708 101.382 295.875 97.6133 309.323C91.4874 331.18 132.96 352.942 145.908 341.666Z" fill="#1A8C25"/>
</g>
</svg>
