<svg width="41" height="55" viewBox="0 0 41 55" fill="none" xmlns="http://www.w3.org/2000/svg">
<path fill-rule="evenodd" clip-rule="evenodd" d="M7.78491 14.5967C7.78491 14.1134 8.17666 13.7217 8.65991 13.7217H35.3199C35.5649 13.7217 35.7986 13.8243 35.9643 14.0047C36.13 14.1851 36.2125 14.4267 36.1918 14.6708L32.9318 53.0408C32.8933 53.4937 32.5144 53.8417 32.0599 53.8417H11.9199C11.4367 53.8417 11.0449 53.4499 11.0449 52.9667C11.0449 52.4834 11.4367 52.0917 11.9199 52.0917H31.2561L34.3674 15.4717H8.65991C8.17666 15.4717 7.78491 15.0799 7.78491 14.5967Z" fill="#424B5A"/>
<path fill-rule="evenodd" clip-rule="evenodd" d="M8.01566 14.0046C8.18136 13.8243 8.41504 13.7217 8.65991 13.7217H35.3199C35.8032 13.7217 36.1949 14.1134 36.1949 14.5967C36.1949 15.0799 35.8032 15.4717 35.3199 15.4717H9.61201L11.0418 32.383C11.0825 32.8645 10.7252 33.2879 10.2436 33.3286C9.7621 33.3693 9.33874 33.0119 9.29803 32.5304L7.78803 14.6704C7.7674 14.4264 7.84996 14.1849 8.01566 14.0046Z" fill="#424B5A"/>
<path fill-rule="evenodd" clip-rule="evenodd" d="M8.30493 20.9468C8.30493 20.4635 8.69668 20.0718 9.17993 20.0718H34.6399C35.1232 20.0718 35.5149 20.4635 35.5149 20.9468C35.5149 21.43 35.1232 21.8218 34.6399 21.8218H9.17993C8.69668 21.8218 8.30493 21.43 8.30493 20.9468Z" fill="#424B5A"/>
<path fill-rule="evenodd" clip-rule="evenodd" d="M11.26 33.3318C6.07681 33.3318 1.875 37.5336 1.875 42.7168C1.875 47.9 6.07681 52.1018 11.26 52.1018C16.4432 52.1018 20.645 47.9 20.645 42.7168C20.645 37.5336 16.4432 33.3318 11.26 33.3318ZM0.125 42.7168C0.125 36.5671 5.11031 31.5818 11.26 31.5818C17.4097 31.5818 22.395 36.5671 22.395 42.7168C22.395 48.8665 17.4097 53.8518 11.26 53.8518C5.11031 53.8518 0.125 48.8665 0.125 42.7168Z" fill="#424B5A"/>
<path fill-rule="evenodd" clip-rule="evenodd" d="M11.26 36.3318C7.73366 36.3318 4.875 39.1904 4.875 42.7168C4.875 46.2431 7.73366 49.1018 11.26 49.1018C14.7863 49.1018 17.645 46.2431 17.645 42.7168C17.645 39.1904 14.7863 36.3318 11.26 36.3318ZM3.125 42.7168C3.125 38.2239 6.76716 34.5818 11.26 34.5818C15.7528 34.5818 19.395 38.2239 19.395 42.7168C19.395 47.2096 15.7528 50.8518 11.26 50.8518C6.76716 50.8518 3.125 47.2096 3.125 42.7168Z" fill="#424B5A"/>
<path fill-rule="evenodd" clip-rule="evenodd" d="M10.385 49.9668V35.4568H12.135V49.9668H10.385Z" fill="#424B5A"/>
<path fill-rule="evenodd" clip-rule="evenodd" d="M18.52 43.5918H4V41.8418H18.52V43.5918Z" fill="#424B5A"/>
<path fill-rule="evenodd" clip-rule="evenodd" d="M5.58374 47.3361L15.5437 36.7861L16.8162 37.9875L6.85625 48.5375L5.58374 47.3361Z" fill="#424B5A"/>
<path fill-rule="evenodd" clip-rule="evenodd" d="M15.6639 48.5375L5.70386 37.9875L6.97636 36.7861L16.9364 47.3361L15.6639 48.5375Z" fill="#424B5A"/>
<path fill-rule="evenodd" clip-rule="evenodd" d="M37.4019 2.00226L28.349 11.0651C28.0075 11.407 27.4535 11.4073 27.1116 11.0658C26.7697 10.7243 26.7694 10.1702 27.1109 9.82835L36.2109 0.718349C36.2372 0.692059 36.2651 0.667468 36.2945 0.644727C36.8027 0.251447 37.4435 0.0703336 38.0824 0.139403C38.6938 0.205499 39.2579 0.495781 39.6668 0.95251C40.1321 1.35928 40.4285 1.92695 40.4952 2.54346C40.5648 3.18754 40.3781 3.83314 39.9754 4.34061C39.9535 4.36821 39.93 4.39445 39.9049 4.41921L31.6549 12.5692C31.3111 12.9088 30.7571 12.9054 30.4175 12.5617C30.0779 12.2179 30.0813 11.6639 30.425 11.3242L38.63 3.21878C38.7291 3.07732 38.774 2.90425 38.7553 2.73156C38.7351 2.54474 38.6422 2.37337 38.4966 2.25454L39.05 1.57673L38.379 2.13829C38.257 1.99253 38.0833 1.89969 37.8943 1.87927C37.7203 1.86046 37.5458 1.90438 37.4019 2.00226Z" fill="#424B5A"/>
<path fill-rule="evenodd" clip-rule="evenodd" d="M27.73 9.57178C28.2132 9.57178 28.605 9.96353 28.605 10.4468V20.4968C28.605 20.98 28.2132 21.3718 27.73 21.3718C27.2467 21.3718 26.855 20.98 26.855 20.4968V10.4468C26.855 9.96353 27.2467 9.57178 27.73 9.57178Z" fill="#424B5A"/>
<path fill-rule="evenodd" clip-rule="evenodd" d="M31.04 11.0718C31.5233 11.0718 31.915 11.4635 31.915 11.9468V20.4968C31.915 20.98 31.5233 21.3718 31.04 21.3718C30.5568 21.3718 30.165 20.98 30.165 20.4968V11.9468C30.165 11.4635 30.5568 11.0718 31.04 11.0718Z" fill="#424B5A"/>
</svg>
