<svg width="58" height="32" viewBox="0 0 58 32" fill="none" xmlns="http://www.w3.org/2000/svg">
<path fill-rule="evenodd" clip-rule="evenodd" d="M11.1349 1.75C10.8746 1.75 10.6248 1.85305 10.4403 2.03663C10.2562 2.21974 10.1518 2.46812 10.1499 2.72772V19.395C10.1499 19.8783 9.75815 20.27 9.2749 20.27C8.79165 20.27 8.3999 19.8783 8.3999 19.395V2.7203C8.40379 1.99748 8.69367 1.30559 9.20616 0.795857C9.71865 0.286124 10.4121 -7.09282e-06 11.1349 1.31868e-10C11.1349 1.31868e-10 11.1349 1.31868e-10 11.1349 1.31868e-10H14.2749C14.9976 1.31868e-10 15.6907 0.287097 16.2018 0.798134C16.7128 1.30917 16.9999 2.00228 16.9999 2.725V29.265C16.9999 29.6229 16.9294 29.9772 16.7925 30.3078C16.6555 30.6384 16.4548 30.9388 16.2018 31.1919C15.9487 31.4449 15.6483 31.6456 15.3177 31.7826C14.9871 31.9195 14.6328 31.99 14.2749 31.99H11.1349C10.4121 31.99 9.71865 31.7039 9.20616 31.1941C8.69367 30.6844 8.4038 29.9925 8.39991 29.2697L8.3999 29.265V22.475C8.3999 21.9918 8.79165 21.6 9.2749 21.6C9.75815 21.6 10.1499 21.9918 10.1499 22.475V29.2623C10.1518 29.5219 10.2562 29.7703 10.4403 29.9534C10.6248 30.137 10.8746 30.24 11.1349 30.24H14.2749C14.4029 30.24 14.5297 30.2148 14.648 30.1658C14.7663 30.1168 14.8738 30.045 14.9643 29.9544C15.0549 29.8639 15.1267 29.7564 15.1757 29.6381C15.2247 29.5198 15.2499 29.393 15.2499 29.265V2.725C15.2499 2.46641 15.1472 2.21842 14.9643 2.03557C14.7815 1.85272 14.5335 1.75 14.2749 1.75H11.1349Z" fill="#424B5A"/>
<path fill-rule="evenodd" clip-rule="evenodd" d="M42.525 1.75C42.2647 1.75 42.015 1.85305 41.8304 2.03663C41.6463 2.21974 41.542 2.46812 41.54 2.72772V29.2623C41.542 29.5219 41.6463 29.7703 41.8304 29.9534C42.015 30.137 42.2647 30.24 42.525 30.24H45.665C45.7931 30.24 45.9199 30.2148 46.0382 30.1658C46.1564 30.1168 46.2639 30.045 46.3545 29.9544C46.445 29.8639 46.5168 29.7564 46.5658 29.6381C46.6148 29.5198 46.64 29.393 46.64 29.265V12.545C46.64 12.0618 47.0318 11.67 47.515 11.67C47.9983 11.67 48.39 12.0618 48.39 12.545V29.265C48.39 29.6228 48.3196 29.9772 48.1826 30.3078C48.0457 30.6384 47.8449 30.9388 47.5919 31.1919C47.3389 31.4449 47.0385 31.6456 46.7079 31.7826C46.3772 31.9195 46.0229 31.99 45.665 31.99H42.5251C41.8022 31.99 41.1088 31.7039 40.5963 31.1941C40.0838 30.6844 39.7939 29.9925 39.7901 29.2697L39.79 29.265V2.7203C39.7939 1.99748 40.0838 1.30559 40.5963 0.795857C41.1088 0.286124 41.8022 -7.09282e-06 42.525 1.31868e-10C42.525 1.31868e-10 42.525 1.31868e-10 42.525 1.31868e-10H45.665C46.3878 1.31868e-10 47.0809 0.287097 47.5919 0.798134C48.1029 1.30917 48.39 2.00229 48.39 2.725V9.515C48.39 9.99825 47.9983 10.39 47.515 10.39C47.0318 10.39 46.64 9.99825 46.64 9.515V2.725C46.64 2.46641 46.5373 2.21842 46.3545 2.03557C46.1716 1.85272 45.9236 1.75 45.665 1.75H42.525Z" fill="#424B5A"/>
<path fill-rule="evenodd" clip-rule="evenodd" d="M6.48477 5.58984H9.62477V7.33984H6.48749C6.22789 7.34176 5.97951 7.44609 5.79639 7.6302C5.61281 7.81477 5.50976 8.06451 5.50977 8.32483V23.9866C5.51543 24.2403 5.61977 24.4818 5.80075 24.6599C5.98315 24.8393 6.22878 24.9399 6.48465 24.9398H9.62477V26.6898H6.48488C6.48484 26.6898 6.48492 26.6898 6.48488 26.6898C5.7698 26.6899 5.08323 26.4089 4.57347 25.9074C4.06369 25.4059 3.77148 24.7241 3.75988 24.009L3.75977 24.0019V8.32486C3.75977 8.32485 3.75977 8.32486 3.75977 8.32486C3.75976 7.60203 4.04589 6.90859 4.55562 6.3961C5.06536 5.88361 5.75724 5.59374 6.48006 5.58986L6.48477 5.58984Z" fill="#424B5A"/>
<path fill-rule="evenodd" clip-rule="evenodd" d="M47.5151 5.58984H50.6598C51.3827 5.5937 52.075 5.88261 52.5862 6.39381C53.0974 6.90501 53.3863 7.59724 53.3901 8.32018L53.3901 8.32484L53.3901 24.0043L53.3899 24.0137C53.3746 24.7288 53.0796 25.4094 52.5684 25.9097C52.0572 26.4099 51.3704 26.69 50.6551 26.6898C50.6551 26.6898 50.6552 26.6898 50.6551 26.6898H47.5151V24.9398H50.6551C50.9127 24.9399 51.1603 24.839 51.3445 24.6589C51.5267 24.4806 51.6326 24.2386 51.6401 23.9839V8.32755C51.6382 8.06621 51.5336 7.81608 51.3487 7.63125C51.1639 7.44641 50.9138 7.34175 50.6524 7.33984H47.5151V5.58984Z" fill="#424B5A"/>
<path fill-rule="evenodd" clip-rule="evenodd" d="M40.505 13.4199H16.125V11.6699H40.505V13.4199Z" fill="#424B5A"/>
<path fill-rule="evenodd" clip-rule="evenodd" d="M40.505 20.27H16.125V18.52H40.505V20.27Z" fill="#424B5A"/>
<path fill-rule="evenodd" clip-rule="evenodd" d="M15.6201 15.5449C15.6201 15.0617 16.0119 14.6699 16.4951 14.6699H33.3851C33.8684 14.6699 34.2601 15.0617 34.2601 15.5449C34.2601 16.0282 33.8684 16.4199 33.3851 16.4199H16.4951C16.0119 16.4199 15.6201 16.0282 15.6201 15.5449Z" fill="#424B5A"/>
<path fill-rule="evenodd" clip-rule="evenodd" d="M34.9102 15.5449C34.9102 15.0617 35.3019 14.6699 35.7852 14.6699H40.6652C41.1484 14.6699 41.5402 15.0617 41.5402 15.5449C41.5402 16.0282 41.1484 16.4199 40.6652 16.4199H35.7852C35.3019 16.4199 34.9102 16.0282 34.9102 15.5449Z" fill="#424B5A"/>
<path fill-rule="evenodd" clip-rule="evenodd" d="M4.005 13.8701C3.40694 13.8701 2.83337 14.1077 2.41047 14.5306C1.98758 14.9535 1.75 15.5271 1.75 16.1251C1.75 16.7232 1.98758 17.2967 2.41047 17.7196C2.83337 18.1425 3.40694 18.3801 4.005 18.3801C4.48825 18.3801 4.88 18.7719 4.88 19.2551C4.88 19.7384 4.48825 20.1301 4.005 20.1301C2.94281 20.1301 1.92412 19.7082 1.17304 18.9571C0.421954 18.206 0 17.1873 0 16.1251C0 15.0629 0.421954 14.0442 1.17304 13.2932C1.92412 12.5421 2.94281 12.1201 4.005 12.1201C4.48825 12.1201 4.88 12.5119 4.88 12.9951C4.88 13.4784 4.48825 13.8701 4.005 13.8701Z" fill="#424B5A"/>
<path fill-rule="evenodd" clip-rule="evenodd" d="M52.3301 12.9951C52.3301 12.5119 52.7218 12.1201 53.2051 12.1201C54.262 12.1201 55.2756 12.54 56.0229 13.2873C56.7702 14.0346 57.1901 15.0482 57.1901 16.1051C57.1901 17.162 56.7702 18.1756 56.0229 18.9229C55.2756 19.6703 54.262 20.0901 53.2051 20.0901C52.7218 20.0901 52.3301 19.6984 52.3301 19.2151C52.3301 18.7319 52.7218 18.3401 53.2051 18.3401C53.7978 18.3401 54.3663 18.1046 54.7855 17.6855C55.2046 17.2664 55.4401 16.6979 55.4401 16.1051C55.4401 15.5124 55.2046 14.9439 54.7855 14.5247C54.3663 14.1056 53.7978 13.8701 53.2051 13.8701C52.7218 13.8701 52.3301 13.4784 52.3301 12.9951Z" fill="#424B5A"/>
</svg>
