<svg width="64" height="64" viewBox="0 0 64 64" fill="none" xmlns="http://www.w3.org/2000/svg">
    <path d="M11.5 53.5H10v3h27.5m-26-3h3m-3 0v-9.25m0-9.25H10v-6.5h1.5m0 6.5H31m-19.5 0v4.625m41 13.875H54v3H43m9.5-3V35m0 18.5H31m21.5 0h-5m5-18.5H54v-6.5h-1.5m0 6.5h-5.375M11.5 28.5v-9s.063-1.063.5-1.5c.437-.437 1.5-.5 1.5-.5H18m-6.5 11h10.25M18 17.5v-8s.191-.691.5-1c.309-.309 1-.5 1-.5h6.25M18 17.5v6s.191.691.5 1c.309.309 1 .5 1 .5h25s.691-.191 1-.5c.309-.309.5-1 .5-1v-6m6.5 11v-9s-.063-1.063-.5-1.5c-.437-.437-1.5-.5-1.5-.5H46m6.5 11H26.875M46 17.5v-8s-.191-.691-.5-1c-.309-.309-1-.5-1-.5H28.875M24 20h-2l-1-1v-4l.5-.5.5-.5h2m0 6 1 1h3v-2m-4 1v-6m0 0 1-1h3v2m12 5h2l1-1v-4l-.5-.5-.5-.5h-2m0 6-1 1h-3v-2m4 1v-6m0 0-1-1h-3v2m-8 0h8m-8 0v4m8-4v4m0 0h-8M14.5 53.5V40h6.75M14.5 53.5h6.75m6.75 0V40h-6.75M28 53.5h-6.75m6.75 0h3m-9.75 0V40m-3.75 4.5v2M31 35v18.5M31 35h10.75M31 53.5h5m0 0a2 2 0 1 0 0-4m0 4a2 2 0 1 1 0-4m0 4h11.5m-11.5-4h8.5m3 4a2 2 0 1 0 0-4m0 4a2 2 0 1 1 0-4m0 0v-5l-4-2V45l1.5 1-.5 3.5m3 0h-3m-21-4.5v1h.5v-1h-.5z" stroke="#424B5A" stroke-width="1.75" stroke-linecap="round" stroke-linejoin="round"/>
</svg>
