<svg width="49" height="61" viewBox="0 0 49 61" fill="none" xmlns="http://www.w3.org/2000/svg">
<path fill-rule="evenodd" clip-rule="evenodd" d="M6.27783 18.6893C6.27783 18.137 6.72555 17.6893 7.27783 17.6893H40.8338C41.3861 17.6893 41.8338 18.137 41.8338 18.6893C41.8338 19.2416 41.3861 19.6893 40.8338 19.6893H7.27783C6.72555 19.6893 6.27783 19.2416 6.27783 18.6893Z" fill="#424B5A"/>
<path fill-rule="evenodd" clip-rule="evenodd" d="M7.27783 43.2477C7.83012 43.2477 8.27783 43.6954 8.27783 44.2477V59.5293C8.27783 60.0816 7.83012 60.5293 7.27783 60.5293C6.72555 60.5293 6.27783 60.0816 6.27783 59.5293V44.2477C6.27783 43.6954 6.72555 43.2477 7.27783 43.2477Z" fill="#424B5A"/>
<path fill-rule="evenodd" clip-rule="evenodd" d="M7.27783 17.6893C7.83012 17.6893 8.27783 18.137 8.27783 18.6893V41.0829C8.27783 41.6352 7.83012 42.0829 7.27783 42.0829C6.72555 42.0829 6.27783 41.6352 6.27783 41.0829V18.6893C6.27783 18.137 6.72555 17.6893 7.27783 17.6893Z" fill="#424B5A"/>
<path fill-rule="evenodd" clip-rule="evenodd" d="M40.8337 17.6893C41.386 17.6893 41.8337 18.137 41.8337 18.6893V59.5292C41.8337 60.0815 41.386 60.5292 40.8337 60.5292C40.2815 60.5292 39.8337 60.0815 39.8337 59.5292V18.6893C39.8337 18.137 40.2815 17.6893 40.8337 17.6893Z" fill="#424B5A"/>
<path fill-rule="evenodd" clip-rule="evenodd" d="M0 59.8561C0 59.3038 0.447715 58.8561 1 58.8561H47.5673C48.1196 58.8561 48.5673 59.3038 48.5673 59.8561C48.5673 60.4084 48.1196 60.8561 47.5673 60.8561H1C0.447715 60.8561 0 60.4084 0 59.8561Z" fill="#424B5A"/>
<path fill-rule="evenodd" clip-rule="evenodd" d="M24.0599 14.4585C21.8486 14.4585 19.659 14.8946 17.6165 15.7418C15.5739 16.5889 13.7184 17.8306 12.1563 19.3957C11.7661 19.7866 11.1329 19.7872 10.742 19.397C10.3512 19.0069 10.3506 18.3737 10.7407 17.9828C12.4886 16.2316 14.5647 14.8423 16.8502 13.8944C19.1357 12.9464 21.5857 12.4585 24.0599 12.4585C26.5342 12.4585 28.9842 12.9464 31.2696 13.8944C33.5551 14.8423 35.6312 16.2316 37.3791 17.9828C37.7693 18.3737 37.7687 19.0069 37.3778 19.397C36.9869 19.7872 36.3538 19.7866 35.9636 19.3957C34.4014 17.8306 32.546 16.5889 30.5034 15.7418C28.4608 14.8946 26.2712 14.4585 24.0599 14.4585Z" fill="#424B5A"/>
<path fill-rule="evenodd" clip-rule="evenodd" d="M19.549 47.4307C20.7675 46.2141 22.4183 45.5295 24.1402 45.5269L24.1417 46.5269L24.1449 45.5269C25.865 45.5322 27.5132 46.2179 28.7295 47.4343C29.9459 48.6506 30.6316 50.2988 30.6369 52.0189L30.6369 52.0221L30.6369 59.8564C30.6369 60.4087 30.1892 60.8564 29.6369 60.8564H18.6379C18.0857 60.8564 17.6379 60.4087 17.6379 59.8564V52.0189C17.6433 50.297 18.3304 48.6473 19.549 47.4307ZM24.141 47.5269C22.9487 47.5293 21.8058 48.0036 20.9621 48.846C20.1181 49.6887 19.6421 50.8311 19.6379 52.0237V58.8564H28.6369V52.0237C28.6328 50.8324 28.1578 49.6909 27.3153 48.8485C26.4731 48.0062 25.332 47.5312 24.141 47.5269Z" fill="#424B5A"/>
<path fill-rule="evenodd" clip-rule="evenodd" d="M11.0259 23.5659C11.0259 23.2898 11.2497 23.0659 11.5259 23.0659H15.4645C15.7407 23.0659 15.9645 23.2898 15.9645 23.5659V27.5046C15.9645 27.7807 15.7407 28.0046 15.4645 28.0046H11.5259C11.2497 28.0046 11.0259 27.7807 11.0259 27.5046V23.5659ZM12.0259 24.0659V27.0046H14.9645V24.0659H12.0259Z" fill="#424B5A"/>
<path fill-rule="evenodd" clip-rule="evenodd" d="M18.2239 23.5659C18.2239 23.2898 18.4477 23.0659 18.7239 23.0659H22.6625C22.9387 23.0659 23.1625 23.2898 23.1625 23.5659V27.5046C23.1625 27.7807 22.9387 28.0046 22.6625 28.0046H18.7239C18.4477 28.0046 18.2239 27.7807 18.2239 27.5046V23.5659ZM19.2239 24.0659V27.0046H22.1625V24.0659H19.2239Z" fill="#424B5A"/>
<path fill-rule="evenodd" clip-rule="evenodd" d="M25.2759 23.5659C25.2759 23.2898 25.4997 23.0659 25.7759 23.0659H29.7145C29.9907 23.0659 30.2145 23.2898 30.2145 23.5659V27.5046C30.2145 27.7807 29.9907 28.0046 29.7145 28.0046H25.7759C25.4997 28.0046 25.2759 27.7807 25.2759 27.5046V23.5659ZM26.2759 24.0659V27.0046H29.2145V24.0659H26.2759Z" fill="#424B5A"/>
<path fill-rule="evenodd" clip-rule="evenodd" d="M32.3103 23.5659C32.3103 23.2898 32.5342 23.0659 32.8103 23.0659H36.749C37.0251 23.0659 37.249 23.2898 37.249 23.5659V27.5046C37.249 27.7807 37.0251 28.0046 36.749 28.0046H32.8103C32.5342 28.0046 32.3103 27.7807 32.3103 27.5046V23.5659ZM33.3103 24.0659V27.0046H36.249V24.0659H33.3103Z" fill="#424B5A"/>
<path fill-rule="evenodd" clip-rule="evenodd" d="M11.1721 31.3397C11.1721 31.0635 11.396 30.8397 11.6721 30.8397H15.6108C15.8869 30.8397 16.1108 31.0635 16.1108 31.3397V35.2783C16.1108 35.5545 15.8869 35.7783 15.6108 35.7783H11.6721C11.396 35.7783 11.1721 35.5545 11.1721 35.2783V31.3397ZM12.1721 31.8397V34.7783H15.1108V31.8397H12.1721Z" fill="#424B5A"/>
<path fill-rule="evenodd" clip-rule="evenodd" d="M18.3616 31.3397C18.3616 31.0635 18.5854 30.8397 18.8616 30.8397H22.8002C23.0764 30.8397 23.3002 31.0635 23.3002 31.3397V35.2783C23.3002 35.5545 23.0764 35.7783 22.8002 35.7783H18.8616C18.5854 35.7783 18.3616 35.5545 18.3616 35.2783V31.3397ZM19.3616 31.8397V34.7783H22.3002V31.8397H19.3616Z" fill="#424B5A"/>
<path fill-rule="evenodd" clip-rule="evenodd" d="M25.4219 31.3397C25.4219 31.0635 25.6457 30.8397 25.9219 30.8397H29.8605C30.1367 30.8397 30.3605 31.0635 30.3605 31.3397V35.2783C30.3605 35.5545 30.1367 35.7783 29.8605 35.7783H25.9219C25.6457 35.7783 25.4219 35.5545 25.4219 35.2783V31.3397ZM26.4219 31.8397V34.7783H29.3605V31.8397H26.4219Z" fill="#424B5A"/>
<path fill-rule="evenodd" clip-rule="evenodd" d="M32.4565 31.3397C32.4565 31.0635 32.6804 30.8397 32.9565 30.8397H36.8952C37.1713 30.8397 37.3952 31.0635 37.3952 31.3397V35.2783C37.3952 35.5545 37.1713 35.7783 36.8952 35.7783H32.9565C32.6804 35.7783 32.4565 35.5545 32.4565 35.2783V31.3397ZM33.4565 31.8397V34.7783H36.3952V31.8397H33.4565Z" fill="#424B5A"/>
<path fill-rule="evenodd" clip-rule="evenodd" d="M11.0259 39.1052C11.0259 38.829 11.2497 38.6052 11.5259 38.6052H15.4645C15.7407 38.6052 15.9645 38.829 15.9645 39.1052V43.0438C15.9645 43.32 15.7407 43.5438 15.4645 43.5438H11.5259C11.2497 43.5438 11.0259 43.32 11.0259 43.0438V39.1052ZM12.0259 39.6052V42.5438H14.9645V39.6052H12.0259Z" fill="#424B5A"/>
<path fill-rule="evenodd" clip-rule="evenodd" d="M18.2239 39.1052C18.2239 38.829 18.4477 38.6052 18.7239 38.6052H22.6625C22.9387 38.6052 23.1625 38.829 23.1625 39.1052V43.0438C23.1625 43.32 22.9387 43.5438 22.6625 43.5438H18.7239C18.4477 43.5438 18.2239 43.32 18.2239 43.0438V39.1052ZM19.2239 39.6052V42.5438H22.1625V39.6052H19.2239Z" fill="#424B5A"/>
<path fill-rule="evenodd" clip-rule="evenodd" d="M25.2759 39.1052C25.2759 38.829 25.4997 38.6052 25.7759 38.6052H29.7145C29.9907 38.6052 30.2145 38.829 30.2145 39.1052V43.0438C30.2145 43.32 29.9907 43.5438 29.7145 43.5438H25.7759C25.4997 43.5438 25.2759 43.32 25.2759 43.0438V39.1052ZM26.2759 39.6052V42.5438H29.2145V39.6052H26.2759Z" fill="#424B5A"/>
<path fill-rule="evenodd" clip-rule="evenodd" d="M32.3103 39.1052C32.3103 38.829 32.5342 38.6052 32.8103 38.6052H36.749C37.0251 38.6052 37.249 38.829 37.249 39.1052V43.0438C37.249 43.32 37.0251 43.5438 36.749 43.5438H32.8103C32.5342 43.5438 32.3103 43.32 32.3103 43.0438V39.1052ZM33.3103 39.6052V42.5438H36.249V39.6052H33.3103Z" fill="#424B5A"/>
<path fill-rule="evenodd" clip-rule="evenodd" d="M10.9485 46.5269C10.9485 46.2507 11.1723 46.0269 11.4485 46.0269H15.3871C15.6633 46.0269 15.8871 46.2507 15.8871 46.5269V50.4655C15.8871 50.7417 15.6633 50.9655 15.3871 50.9655H11.4485C11.1723 50.9655 10.9485 50.7417 10.9485 50.4655V46.5269ZM11.9485 47.0269V49.9655H14.8871V47.0269H11.9485Z" fill="#424B5A"/>
<path fill-rule="evenodd" clip-rule="evenodd" d="M32.2244 46.5269C32.2244 46.2507 32.4482 46.0269 32.7244 46.0269H36.663C36.9392 46.0269 37.163 46.2507 37.163 46.5269V50.4655C37.163 50.7417 36.9392 50.9655 36.663 50.9655H32.7244C32.4482 50.9655 32.2244 50.7417 32.2244 50.4655V46.5269ZM33.2244 47.0269V49.9655H36.163V47.0269H33.2244Z" fill="#424B5A"/>
<path fill-rule="evenodd" clip-rule="evenodd" d="M24.1418 45.6519C24.6251 45.6519 25.0168 46.0436 25.0168 46.5269V59.5296C25.0168 60.0128 24.6251 60.4046 24.1418 60.4046C23.6586 60.4046 23.2668 60.0128 23.2668 59.5296V46.5269C23.2668 46.0436 23.6586 45.6519 24.1418 45.6519Z" fill="#424B5A"/>
<path fill-rule="evenodd" clip-rule="evenodd" d="M24.2788 0.5C24.4692 0.499783 24.6432 0.607736 24.7276 0.778433L26.1073 3.56968L29.1922 4.01377C29.3805 4.04088 29.5371 4.17252 29.5962 4.35338C29.6553 4.53423 29.6066 4.73294 29.4707 4.86602L27.2414 7.04773L27.7649 10.1176C27.7969 10.3051 27.7197 10.4946 27.5657 10.6063C27.4117 10.7181 27.2077 10.7328 27.0393 10.6442L24.2797 9.19302L21.5285 10.6439C21.3601 10.7327 21.1559 10.7182 21.0018 10.6065C20.8477 10.4948 20.7704 10.3052 20.8024 10.1176L21.3259 7.04773L19.0966 4.86602C18.9606 4.73294 18.9119 4.53423 18.971 4.35338C19.0301 4.17252 19.1867 4.04088 19.3751 4.01377L22.4592 3.56978L23.8306 0.779458C23.9146 0.608569 24.0883 0.500218 24.2788 0.5ZM24.2806 2.13094L23.2403 4.24763C23.1675 4.3958 23.0262 4.49846 22.8628 4.52199L20.5195 4.85933L22.2125 6.51624C22.3298 6.63098 22.3833 6.79593 22.3557 6.95764L21.9585 9.28659L24.0461 8.18566C24.1919 8.10877 24.3662 8.10867 24.512 8.18538L26.609 9.28809L26.2116 6.95764C26.184 6.79593 26.2375 6.63098 26.3547 6.51624L28.0478 4.85933L25.7044 4.52199C25.5414 4.49852 25.4004 4.39629 25.3274 4.24866L24.2806 2.13094Z" fill="#424B5A"/>
<path fill-rule="evenodd" clip-rule="evenodd" d="M33.7141 5.10095C33.9044 5.10128 34.078 5.20963 34.162 5.38045L35.026 7.13894L36.9666 7.41941C37.1551 7.44666 37.3118 7.57864 37.3706 7.7598C37.4295 7.94095 37.3803 8.1398 37.2438 8.27263L35.8408 9.63768L36.167 11.572C36.1986 11.7595 36.1211 11.9486 35.9672 12.0601C35.8132 12.1716 35.6093 12.1861 35.4411 12.0976L33.7127 11.1879L31.9759 12.098C31.8074 12.1863 31.6033 12.1713 31.4495 12.0593C31.2957 11.9473 31.2188 11.7576 31.2512 11.5701L31.5846 9.63768L30.175 8.27357C30.038 8.14094 29.9883 7.9419 30.047 7.76044C30.1056 7.57897 30.2624 7.44669 30.4512 7.41941L32.3929 7.13878L33.2652 5.37889C33.3497 5.20837 33.5237 5.10062 33.7141 5.10095ZM33.7112 6.73072L33.1722 7.81814C33.0992 7.96543 32.9585 8.06742 32.7958 8.09094L31.6025 8.2634L32.47 9.10291C32.5888 9.21792 32.6431 9.38426 32.615 9.54723L32.4088 10.7422L33.4811 10.1803C33.6268 10.104 33.8006 10.1041 33.9461 10.1807L35.0129 10.7422L34.8111 9.54535C34.7838 9.38341 34.8378 9.21838 34.9555 9.10385L35.8187 8.2639L34.622 8.09094C34.4587 8.06733 34.3176 7.96468 34.2448 7.81659L33.7112 6.73072Z" fill="#424B5A"/>
<path fill-rule="evenodd" clip-rule="evenodd" d="M14.3888 5.10095C14.5791 5.10062 14.7531 5.20837 14.8376 5.37889L15.71 7.13878L17.6517 7.41941C17.8402 7.44666 17.9968 7.57864 18.0557 7.7598C18.1145 7.94095 18.0653 8.1398 17.9288 8.27263L16.5259 9.63768L16.852 11.572C16.8836 11.7593 16.8063 11.9483 16.6526 12.0599C16.4988 12.1714 16.2952 12.1862 16.1269 12.098L14.3902 11.1879L12.6618 12.0976C12.4936 12.1861 12.2897 12.1716 12.1357 12.0601C11.9817 11.9486 11.9043 11.7595 11.9359 11.572L12.2621 9.63768L10.8591 8.27263C10.7226 8.1398 10.6734 7.94095 10.7322 7.7598C10.7911 7.57864 10.9477 7.44666 11.1363 7.41941L13.0768 7.13894L13.9409 5.38045C14.0248 5.20963 14.1985 5.10128 14.3888 5.10095ZM14.3916 6.73072L13.858 7.81659C13.7853 7.96468 13.6441 8.06733 13.4808 8.09094L12.2841 8.2639L13.1474 9.10385C13.2651 9.21838 13.3191 9.38341 13.2918 9.54535L13.0899 10.7422L14.1568 10.1807C14.3023 10.1041 14.4761 10.104 14.6217 10.1803L15.6984 10.7445L15.4962 9.54535C15.4689 9.38341 15.5228 9.21838 15.6405 9.10385L16.5038 8.2639L15.3071 8.09094C15.1444 8.06742 15.0037 7.96543 14.9306 7.81814L14.3916 6.73072Z" fill="#424B5A"/>
<path fill-rule="evenodd" clip-rule="evenodd" d="M41.3756 9.70197C41.5657 9.70197 41.7394 9.80982 41.8237 9.98025L42.5153 11.3782L44.0606 11.5989C44.2489 11.6258 44.4057 11.7573 44.465 11.9381C44.5243 12.119 44.4758 12.3178 44.3399 12.451L43.22 13.5488L43.485 15.0877C43.5174 15.2754 43.4403 15.4651 43.2862 15.5771C43.1321 15.689 42.9278 15.7037 42.7593 15.615L41.3755 14.8863L39.9918 15.615C39.8233 15.7037 39.619 15.689 39.4649 15.5771C39.3108 15.4651 39.2337 15.2754 39.2661 15.0877L39.5311 13.5488L38.4112 12.451C38.2753 12.3178 38.2268 12.119 38.2861 11.9381C38.3454 11.7573 38.5022 11.6258 38.6905 11.5989L40.2358 11.3782L40.9274 9.98025C41.0117 9.80982 41.1854 9.70197 41.3756 9.70197ZM41.3755 11.3295L41.0153 12.0576C40.9422 12.2054 40.801 12.3076 40.6379 12.3309L39.8344 12.4457L40.4184 13.0182C40.5357 13.1331 40.589 13.2983 40.5611 13.4601L40.4238 14.2573L41.1426 13.8788C41.2884 13.802 41.4627 13.802 41.6085 13.8788L42.3273 14.2573L42.19 13.4601C42.1621 13.2983 42.2154 13.1331 42.3327 13.0182L42.9167 12.4457L42.1132 12.3309C41.95 12.3076 41.8089 12.2054 41.7358 12.0576L41.3755 11.3295Z" fill="#424B5A"/>
<path fill-rule="evenodd" clip-rule="evenodd" d="M7.27789 9.70197C7.46804 9.70197 7.64173 9.80982 7.72605 9.98025L8.41765 11.3782L9.96291 11.5989C10.1513 11.6258 10.308 11.7573 10.3673 11.9381C10.4266 12.119 10.3781 12.3178 10.2422 12.451L9.1223 13.5488L9.38738 15.0877C9.41971 15.2754 9.34261 15.4651 9.18853 15.5771C9.03446 15.689 8.83017 15.7037 8.66166 15.615L7.27789 14.8863L5.89412 15.615C5.72561 15.7037 5.52132 15.689 5.36725 15.5771C5.21318 15.4651 5.13608 15.2754 5.16841 15.0877L5.43349 13.5488L4.31358 12.451C4.17769 12.3178 4.12919 12.119 4.18846 11.9381C4.24774 11.7573 4.40451 11.6258 4.59288 11.5989L6.13814 11.3782L6.82974 9.98025C6.91406 9.80982 7.08775 9.70197 7.27789 9.70197ZM7.27789 11.3295L6.91768 12.0576C6.84459 12.2054 6.70339 12.3076 6.54023 12.3309L5.73671 12.4457L6.32075 13.0182C6.43801 13.1331 6.49136 13.2983 6.46348 13.4601L6.32617 14.2573L7.04492 13.8788C7.19074 13.802 7.36504 13.802 7.51086 13.8788L8.22961 14.2573L8.0923 13.4601C8.06443 13.2983 8.11778 13.1331 8.23503 13.0182L8.81908 12.4457L8.01555 12.3309C7.85239 12.3076 7.7112 12.2054 7.63811 12.0576L7.27789 11.3295Z" fill="#424B5A"/>
</svg>
