<svg width="64" height="64" viewBox="0 0 64 64" fill="none" xmlns="http://www.w3.org/2000/svg">
    <path opacity=".5" d="M12.03 55.47V29.75l22.59-18.14 11.41 9.14v-6.44h4.98v10.42l5.64 5.02v25.72" fill="#E9D9E8"/>
    <path fill-rule="evenodd" clip-rule="evenodd" d="M31.725 8.22a1 1 0 0 1 1.25 0l9.795 7.839V11.7a1 1 0 0 1 1-1h4.97a1 1 0 0 1 1 1v9.94l13.585 10.88a1 1 0 1 1-1.25 1.56L48.115 22.9a1 1 0 0 1-.375-.78V12.7h-2.97v5.44a1 1 0 0 1-1.625.78L32.35 10.28 2.625 34.08a1 1 0 0 1-1.25-1.56l30.35-24.3zM9.76 45.38a1 1 0 0 1 1 1v6.48a1 1 0 1 1-2 0v-6.48a1 1 0 0 1 1-1z" fill="#4B273A"/>
    <path fill-rule="evenodd" clip-rule="evenodd" d="M9.76 26.14a1 1 0 0 1 1 1V40a1 1 0 1 1-2 0V27.14a1 1 0 0 1 1-1zM54.38 26.14a1 1 0 0 1 1 1v25.72a1 1 0 1 1-2 0V27.14a1 1 0 0 1 1-1z" fill="#4B273A"/>
    <path fill-rule="evenodd" clip-rule="evenodd" d="M8.76 52.86a1 1 0 0 1 1-1h44.62a1 1 0 1 1 0 2H9.76a1 1 0 0 1-1-1zM28.15 27.56a3.37 3.37 0 0 0-3.37 3.37v8.41a3.37 3.37 0 0 0 3.37 3.37h8.41a3.37 3.37 0 0 0 3.37-3.37v-8.41a3.37 3.37 0 0 0-3.37-3.37h-8.41zm-5.37 3.37a5.37 5.37 0 0 1 5.37-5.37h8.41a5.37 5.37 0 0 1 5.37 5.37v8.41a5.37 5.37 0 0 1-5.37 5.37h-8.41a5.37 5.37 0 0 1-5.37-5.37v-8.41z" fill="#4B273A"/>
    <path fill-rule="evenodd" clip-rule="evenodd" d="M32.51 26.14a1 1 0 0 1 1 1v15.93a1 1 0 1 1-2 0V27.14a1 1 0 0 1 1-1z" fill="#4B273A"/>
    <path fill-rule="evenodd" clip-rule="evenodd" d="M22.78 35.11a1 1 0 0 1 1-1h16.69a1 1 0 1 1 0 2H23.78a1 1 0 0 1-1-1z" fill="#4B273A"/>
</svg>
