<svg width="63" height="63" viewBox="0 0 63 63" fill="none" xmlns="http://www.w3.org/2000/svg">
<path d="M49.5317 6.59863L61.3557 18.7363" stroke="#424B5A" stroke-width="1.75" stroke-linecap="round" stroke-linejoin="round"/>
<path d="M47.1651 4.08918L44.2661 1.19971" stroke="#424B5A" stroke-width="1.75" stroke-linecap="round" stroke-linejoin="round"/>
<path d="M61.3555 18.7363L45.0928 35.4268" stroke="#424B5A" stroke-width="1.75" stroke-linecap="round" stroke-linejoin="round"/>
<path d="M43.9713 1L27.7085 17.6905L43.9713 1Z" stroke="#424B5A" stroke-width="1.75" stroke-linecap="round" stroke-linejoin="round"/>
<path d="M43.5435 5.79053L46.1003 8.33782" stroke="#424B5A" stroke-width="1.75" stroke-linecap="round" stroke-linejoin="round"/>
<path d="M30.4458 19.5435L32.803 21.8911" stroke="#424B5A" stroke-width="1.75" stroke-linecap="round" stroke-linejoin="round"/>
<path d="M43.5059 5.82861L30.3037 19.373L43.5059 5.82861Z" stroke="#424B5A" stroke-width="1.75" stroke-linecap="round" stroke-linejoin="round"/>
<path d="M46.1102 8.44238L32.9175 21.9773L46.1102 8.44238Z" stroke="#424B5A" stroke-width="1.75" stroke-linecap="round" stroke-linejoin="round"/>
<path d="M48.7046 10.8467L51.2614 13.394" stroke="#424B5A" stroke-width="1.75" stroke-linecap="round" stroke-linejoin="round"/>
<path d="M35.6167 24.6006L37.9644 26.9483" stroke="#424B5A" stroke-width="1.75" stroke-linecap="round" stroke-linejoin="round"/>
<path d="M48.6666 10.8848L35.4644 24.4291L48.6666 10.8848Z" stroke="#424B5A" stroke-width="1.75" stroke-linecap="round" stroke-linejoin="round"/>
<path d="M51.2711 13.4893L38.0688 27.0336L51.2711 13.4893Z" stroke="#424B5A" stroke-width="1.75" stroke-linecap="round" stroke-linejoin="round"/>
<path d="M53.8091 15.7705L56.3659 18.3273" stroke="#424B5A" stroke-width="1.75" stroke-linecap="round" stroke-linejoin="round"/>
<path d="M40.7207 29.5239L43.0684 31.8716" stroke="#424B5A" stroke-width="1.75" stroke-linecap="round" stroke-linejoin="round"/>
<path d="M53.7706 15.8086L40.5684 29.353L53.7706 15.8086Z" stroke="#424B5A" stroke-width="1.75" stroke-linecap="round" stroke-linejoin="round"/>
<path d="M56.3748 18.4224L43.1821 31.9572L56.3748 18.4224Z" stroke="#424B5A" stroke-width="1.75" stroke-linecap="round" stroke-linejoin="round"/>
<path d="M27.7087 17.6904C26.397 20.6369 28.8208 25.5319 30.3035 27.0812" stroke="#424B5A" stroke-width="1.75" stroke-linecap="round" stroke-linejoin="round"/>
<path d="M44.8363 35.7116C41.7472 36.6621 37.2324 33.63 35.8447 31.9097" stroke="#424B5A" stroke-width="1.75" stroke-linecap="round" stroke-linejoin="round"/>
<path d="M35.845 31.957C32.7845 31.957 30.3037 31.957 30.3037 27.0811" stroke="#424B5A" stroke-width="1.75" stroke-linecap="round" stroke-linejoin="round"/>
<path d="M30.3035 29.5239L14.4209 45.4065" stroke="#424B5A" stroke-width="1.75" stroke-linecap="round" stroke-linejoin="round"/>
<path d="M33.0694 31.957L28.1079 36.9281" stroke="#424B5A" stroke-width="1.75" stroke-linecap="round" stroke-linejoin="round"/>
<path d="M25.8742 39.0195L17.0537 47.84" stroke="#424B5A" stroke-width="1.75" stroke-linecap="round" stroke-linejoin="round"/>
<path d="M18.0516 49.6841L6.38916 61.356" stroke="#424B5A" stroke-width="1.75" stroke-linecap="round" stroke-linejoin="round"/>
<path d="M12.6719 44.2944L1 55.9664" stroke="#424B5A" stroke-width="1.75" stroke-linecap="round" stroke-linejoin="round"/>
<path d="M6.17063 61.1464L1 55.9663" stroke="#424B5A" stroke-width="1.75" stroke-linecap="round" stroke-linejoin="round"/>
<path d="M12.6719 44.2944L18.0516 49.6837" stroke="#424B5A" stroke-width="1.75" stroke-linecap="round" stroke-linejoin="round"/>
</svg>
