<svg width="61" height="52" viewBox="0 0 61 52" fill="none" xmlns="http://www.w3.org/2000/svg">
<path fill-rule="evenodd" clip-rule="evenodd" d="M3.875 24.4199C3.31142 24.4199 2.77091 24.6438 2.3724 25.0423C1.97388 25.4408 1.75 25.9813 1.75 26.5449C1.75 27.1085 1.97388 27.649 2.3724 28.0475C2.77091 28.446 3.31141 28.6699 3.875 28.6699H12.265C12.7482 28.6699 13.14 29.0617 13.14 29.5449C13.14 30.0282 12.7482 30.4199 12.265 30.4199H3.875C2.84729 30.4199 1.86166 30.0117 1.13496 29.285C0.408258 28.5583 0 27.5726 0 26.5449C0 25.5172 0.408258 24.5316 1.13496 23.8049C1.86166 23.0782 2.84728 22.6699 3.875 22.6699H56.245C57.2727 22.6699 58.2583 23.0782 58.985 23.8049C59.7117 24.5316 60.12 25.5172 60.12 26.5449C60.12 27.5726 59.7117 28.5583 58.985 29.285C58.2583 30.0117 57.2727 30.4199 56.245 30.4199H15.655C15.1718 30.4199 14.78 30.0282 14.78 29.5449C14.78 29.0617 15.1718 28.6699 15.655 28.6699H56.245C56.8086 28.6699 57.3491 28.446 57.7476 28.0475C58.1461 27.649 58.37 27.1085 58.37 26.5449C58.37 25.9813 58.1461 25.4408 57.7476 25.0423C57.3491 24.6438 56.8086 24.4199 56.245 24.4199H3.875Z" fill="#424B5A"/>
<path fill-rule="evenodd" clip-rule="evenodd" d="M6.45508 28.6699C6.93833 28.6699 7.33008 29.0617 7.33008 29.5449V50.7349C7.33008 51.2182 6.93833 51.6099 6.45508 51.6099C5.97183 51.6099 5.58008 51.2182 5.58008 50.7349V29.5449C5.58008 29.0617 5.97183 28.6699 6.45508 28.6699Z" fill="#424B5A"/>
<path fill-rule="evenodd" clip-rule="evenodd" d="M53.335 40.7798C53.8182 40.7798 54.21 41.1715 54.21 41.6548V50.7348C54.21 51.218 53.8182 51.6098 53.335 51.6098C52.8517 51.6098 52.46 51.218 52.46 50.7348V41.6548C52.46 41.1715 52.8517 40.7798 53.335 40.7798Z" fill="#424B5A"/>
<path fill-rule="evenodd" clip-rule="evenodd" d="M53.335 28.6699C53.8182 28.6699 54.21 29.0617 54.21 29.5449V38.4949C54.21 38.9782 53.8182 39.3699 53.335 39.3699C52.8517 39.3699 52.46 38.9782 52.46 38.4949V29.5449C52.46 29.0617 52.8517 28.6699 53.335 28.6699Z" fill="#424B5A"/>
<path fill-rule="evenodd" clip-rule="evenodd" d="M5.58008 50.7349C5.58008 50.2516 5.97183 49.8599 6.45508 49.8599H53.3351C53.8183 49.8599 54.2101 50.2516 54.2101 50.7349C54.2101 51.2181 53.8183 51.6099 53.3351 51.6099H6.45508C5.97183 51.6099 5.58008 51.2181 5.58008 50.7349Z" fill="#424B5A"/>
<path fill-rule="evenodd" clip-rule="evenodd" d="M15.8401 36.0952C15.8401 35.612 16.2318 35.2202 16.7151 35.2202H43.3951C43.8783 35.2202 44.2701 35.612 44.2701 36.0952V43.9352C44.2701 44.4185 43.8783 44.8102 43.3951 44.8102H16.7151C16.2318 44.8102 15.8401 44.4185 15.8401 43.9352V36.0952ZM17.5901 36.9702V43.0602H42.5201V36.9702H17.5901Z" fill="#424B5A"/>
<path fill-rule="evenodd" clip-rule="evenodd" d="M6.56006 7.19482C6.56006 6.71158 6.95181 6.31982 7.43506 6.31982H28.1351C28.6183 6.31982 29.0101 6.71158 29.0101 7.19482C29.0101 7.67807 28.6183 8.06982 28.1351 8.06982H7.43506C6.95181 8.06982 6.56006 7.67807 6.56006 7.19482Z" fill="#424B5A"/>
<path fill-rule="evenodd" clip-rule="evenodd" d="M6.56006 20.1748C6.56006 19.6916 6.95181 19.2998 7.43506 19.2998H28.1351C28.6183 19.2998 29.0101 19.6916 29.0101 20.1748C29.0101 20.6581 28.6183 21.0498 28.1351 21.0498H7.43506C6.95181 21.0498 6.56006 20.6581 6.56006 20.1748Z" fill="#424B5A"/>
<path fill-rule="evenodd" clip-rule="evenodd" d="M7.43506 6.31982C7.91831 6.31982 8.31006 6.71158 8.31006 7.19482V20.1748C8.31006 20.6581 7.91831 21.0498 7.43506 21.0498C6.95181 21.0498 6.56006 20.6581 6.56006 20.1748V7.19482C6.56006 6.71158 6.95181 6.31982 7.43506 6.31982Z" fill="#424B5A"/>
<path fill-rule="evenodd" clip-rule="evenodd" d="M28.135 6.31982C28.6183 6.31982 29.01 6.71158 29.01 7.19482V20.1748C29.01 20.6581 28.6183 21.0498 28.135 21.0498C27.6518 21.0498 27.26 20.6581 27.26 20.1748V7.19482C27.26 6.71158 27.6518 6.31982 28.135 6.31982Z" fill="#424B5A"/>
<path fill-rule="evenodd" clip-rule="evenodd" d="M15.7151 19.73C16.1983 19.73 16.5901 20.1217 16.5901 20.605V22.865C16.5901 23.3482 16.1983 23.74 15.7151 23.74C15.2318 23.74 14.8401 23.3482 14.8401 22.865V20.605C14.8401 20.1217 15.2318 19.73 15.7151 19.73Z" fill="#424B5A"/>
<path fill-rule="evenodd" clip-rule="evenodd" d="M20.2349 19.73C20.7181 19.73 21.1099 20.1217 21.1099 20.605V22.865C21.1099 23.3482 20.7181 23.74 20.2349 23.74C19.7516 23.74 19.3599 23.3482 19.3599 22.865V20.605C19.3599 20.1217 19.7516 19.73 20.2349 19.73Z" fill="#424B5A"/>
<path fill-rule="evenodd" clip-rule="evenodd" d="M17.6351 11.8999C16.6493 11.8999 15.8501 12.6991 15.8501 13.6849C15.8501 14.6707 16.6493 15.4699 17.6351 15.4699C18.6209 15.4699 19.4201 14.6707 19.4201 13.6849C19.4201 12.6991 18.6209 11.8999 17.6351 11.8999ZM14.1001 13.6849C14.1001 11.7326 15.6828 10.1499 17.6351 10.1499C19.5874 10.1499 21.1701 11.7326 21.1701 13.6849C21.1701 15.6372 19.5874 17.2199 17.6351 17.2199C15.6828 17.2199 14.1001 15.6372 14.1001 13.6849Z" fill="#424B5A"/>
<path fill-rule="evenodd" clip-rule="evenodd" d="M42.9749 1.75C40.1776 1.75 37.9099 4.01768 37.9099 6.815C37.9099 9.61232 40.1776 11.88 42.9749 11.88C45.7722 11.88 48.0399 9.61232 48.0399 6.815C48.0399 4.01768 45.7722 1.75 42.9749 1.75ZM36.1599 6.815C36.1599 3.05118 39.2111 0 42.9749 0C46.7387 0 49.7899 3.05118 49.7899 6.815C49.7899 10.5788 46.7387 13.63 42.9749 13.63C39.2111 13.63 36.1599 10.5788 36.1599 6.815Z" fill="#424B5A"/>
<path fill-rule="evenodd" clip-rule="evenodd" d="M42.975 12.9351L42.9714 12.0601C40.1182 12.0715 37.3851 13.21 35.3675 15.2276C33.3499 17.2452 32.2114 19.9783 32.2 22.8315C32.198 23.3148 32.5882 23.7081 33.0714 23.71C33.5547 23.712 33.948 23.3218 33.9499 22.8386C33.9595 20.447 34.9138 18.1561 36.6049 16.4651C38.2953 14.7747 40.585 13.8205 42.9754 13.8101C45.3674 13.8181 47.6594 14.7712 49.3517 16.4619C51.0448 18.1532 52.0003 20.4454 52.01 22.8386C52.0119 23.3218 52.4052 23.712 52.8885 23.71C53.3717 23.7081 53.7619 23.3148 53.7599 22.8315C53.7485 19.9764 52.6084 17.2417 50.5885 15.2238C48.5686 13.2059 45.8327 12.0687 42.9776 12.0601L42.975 12.9351Z" fill="#424B5A"/>
</svg>
