<svg width="60" height="43" viewBox="0 0 60 43" fill="none" xmlns="http://www.w3.org/2000/svg">
<path fill-rule="evenodd" clip-rule="evenodd" d="M38.9151 1.75C28.2698 1.75 19.6401 10.3797 19.6401 21.025C19.6401 31.6703 28.2698 40.3 38.9151 40.3C49.5604 40.3 58.1901 31.6703 58.1901 21.025C58.1901 10.3797 49.5604 1.75 38.9151 1.75ZM17.8901 21.025C17.8901 9.41321 27.3033 0 38.9151 0C50.5269 0 59.9401 9.41321 59.9401 21.025C59.9401 32.6368 50.5269 42.05 38.9151 42.05C27.3033 42.05 17.8901 32.6368 17.8901 21.025Z" fill="#424B5A"/>
<path fill-rule="evenodd" clip-rule="evenodd" d="M46.586 9.87637C43.8682 7.99758 40.5566 7.17862 37.2764 7.57406C33.9961 7.9695 30.9741 9.55198 28.7806 12.0228C26.5871 14.4937 25.374 17.682 25.3701 20.986C25.3695 21.4692 24.9773 21.8605 24.4941 21.86C24.0108 21.8594 23.6196 21.4672 23.6201 20.9839C23.6245 17.2524 24.9946 13.6516 27.4719 10.861C29.9492 8.07048 33.3622 6.28325 37.0669 5.83664C40.7716 5.39004 44.5116 6.31496 47.5811 8.43685C50.6506 10.5587 52.8372 13.7308 53.7282 17.3544C54.6193 20.9779 54.1531 24.8023 52.4177 28.1057C50.6823 31.4091 47.7978 33.963 44.3084 35.2855C40.8191 36.6079 36.9664 36.6073 33.4775 35.2838C29.9886 33.9604 27.1048 31.4056 25.3704 28.1017C25.1458 27.6738 25.3105 27.1448 25.7384 26.9202C26.1663 26.6956 26.6952 26.8604 26.9199 27.2883C28.4556 30.2137 31.009 32.4758 34.0982 33.6476C37.1874 34.8194 40.5987 34.8199 43.6882 33.649C46.7778 32.4781 49.3319 30.2168 50.8685 27.2918C52.405 24.3669 52.8178 20.9807 52.0289 17.7722C51.2399 14.5638 49.3038 11.7552 46.586 9.87637Z" fill="#424B5A"/>
<path fill-rule="evenodd" clip-rule="evenodd" d="M6.10522 0.22998C6.58847 0.22998 6.98022 0.621731 6.98022 1.10498V14.215C6.98022 14.6982 6.58847 15.09 6.10522 15.09C5.62198 15.09 5.23022 14.6982 5.23022 14.215V1.10498C5.23022 0.621731 5.62198 0.22998 6.10522 0.22998Z" fill="#424B5A"/>
<path fill-rule="evenodd" clip-rule="evenodd" d="M10.9351 0.22998C11.4183 0.22998 11.8101 0.621731 11.8101 1.10498V14.215C11.8101 14.6982 11.4183 15.09 10.9351 15.09C10.4518 15.09 10.0601 14.6982 10.0601 14.215V1.10498C10.0601 0.621731 10.4518 0.22998 10.9351 0.22998Z" fill="#424B5A"/>
<path fill-rule="evenodd" clip-rule="evenodd" d="M5.89014 16.061L7.12989 16.6296C7.5896 16.8404 8.08939 16.9495 8.59514 16.9495C9.10089 16.9495 9.60068 16.8404 10.0604 16.6296L11.3001 16.061V29.2249C11.3001 29.7082 10.9084 30.0999 10.4251 30.0999C9.94189 30.0999 9.55014 29.7082 9.55014 29.2249V18.6122C9.23601 18.6702 8.91637 18.6995 8.59514 18.6995C8.2739 18.6995 7.95427 18.6702 7.64014 18.6122V39.1949C7.64014 39.4482 7.74075 39.6911 7.91985 39.8702C8.09895 40.0493 8.34186 40.1499 8.59514 40.1499C8.84842 40.1499 9.09133 40.0493 9.27042 39.8702C9.44952 39.6911 9.55014 39.4482 9.55014 39.1949V33.6649C9.55014 33.1817 9.94189 32.7899 10.4251 32.7899C10.9084 32.7899 11.3001 33.1817 11.3001 33.6649V39.1949C11.3001 39.9123 11.0151 40.6004 10.5079 41.1077C10.0006 41.6149 9.31255 41.8999 8.59514 41.8999C7.87773 41.8999 7.1897 41.6149 6.68241 41.1077C6.17513 40.6004 5.89014 39.9123 5.89014 39.1949V16.061Z" fill="#424B5A"/>
<path fill-rule="evenodd" clip-rule="evenodd" d="M15.3115 0.295134C15.792 0.243434 16.2234 0.591025 16.2751 1.0715L17.2002 9.6693L17.2001 9.71737C17.1942 11.9971 16.286 14.1819 14.6739 15.7939C13.0619 17.406 10.8772 18.3142 8.59737 18.3201L8.59512 17.4451L8.59174 18.3201C6.31388 18.3113 4.13201 17.4018 2.52235 15.79C0.912698 14.1783 0.00598371 11.9952 0.000122428 9.71736L0 9.6698L0.915034 1.07251C0.966178 0.591972 1.39719 0.243882 1.87773 0.295027C2.35826 0.346171 2.70635 0.777183 2.65521 1.25772L1.75039 9.759C1.76708 11.558 2.4884 13.2795 3.76059 14.5534C5.04298 15.8374 6.78101 16.5623 8.59566 16.5701C10.4119 16.5647 12.1522 15.8408 13.4365 14.5565C14.7105 13.2825 15.433 11.5598 15.4498 9.75949L14.5351 1.25872C14.4834 0.778249 14.831 0.346835 15.3115 0.295134Z" fill="#424B5A"/>
<path d="M38.9151 11.935C39.8374 11.935 40.5851 11.1873 40.5851 10.265C40.5851 9.34266 39.8374 8.59497 38.9151 8.59497C37.9928 8.59497 37.2451 9.34266 37.2451 10.265C37.2451 11.1873 37.9928 11.935 38.9151 11.935Z" fill="#424B5A"/>
<path d="M38.9151 33.235C39.8374 33.235 40.5851 32.4873 40.5851 31.565C40.5851 30.6427 39.8374 29.895 38.9151 29.895C37.9928 29.895 37.2451 30.6427 37.2451 31.565C37.2451 32.4873 37.9928 33.235 38.9151 33.235Z" fill="#424B5A"/>
<path d="M49.7652 22.695C50.6875 22.695 51.4352 21.9473 51.4352 21.025C51.4352 20.1027 50.6875 19.355 49.7652 19.355C48.8429 19.355 48.0952 20.1027 48.0952 21.025C48.0952 21.9473 48.8429 22.695 49.7652 22.695Z" fill="#424B5A"/>
<path d="M28.305 23.3749C29.2273 23.3749 29.975 22.6272 29.975 21.7049C29.975 20.7826 29.2273 20.0349 28.305 20.0349C27.3827 20.0349 26.635 20.7826 26.635 21.7049C26.635 22.6272 27.3827 23.3749 28.305 23.3749Z" fill="#424B5A"/>
<path d="M38.8852 23.755C40.288 23.755 41.4252 22.6179 41.4252 21.215C41.4252 19.8122 40.288 18.675 38.8852 18.675C37.4824 18.675 36.3452 19.8122 36.3452 21.215C36.3452 22.6179 37.4824 23.755 38.8852 23.755Z" fill="#424B5A"/>
<path fill-rule="evenodd" clip-rule="evenodd" d="M38.915 13.7051C39.1912 13.7051 39.415 13.9289 39.415 14.2051V22.2151C39.415 22.4912 39.1912 22.7151 38.915 22.7151C38.6389 22.7151 38.415 22.4912 38.415 22.2151V14.2051C38.415 13.9289 38.6389 13.7051 38.915 13.7051Z" fill="#424B5A"/>
</svg>
