<svg width="64" height="64" viewBox="0 0 64 64" fill="none" xmlns="http://www.w3.org/2000/svg">
    <path d="M7.484 53.617H5v3.727h51.758v-3.727h-2.485m-46.789 0V30.016m0 23.601H20.32M7.484 30.016l6.625-3.727 6.211 3.727m-12.836 0-.828.414L5 27.53l9.11-5.383 6.21 3.388m0 4.48.828.414 2.07-3.313-2.898-1.58m0 4.479v5.9m0 17.701h4.97m-4.97 0v-11.8m4.97 11.8v-8.695h5.382m-5.383 8.695h5.383m5.383 0v-8.695h-5.383m5.383 8.695h-5.383m5.383 0h5.383m-10.766 0v-8.695m23.601 8.695V30.016m0 23.601H41.437m12.836-23.601-6.625-3.727-6.21 3.727m12.835 0 .829.414 2.07-3.313-9.524-4.969-6.21 3.24m0 4.628-1.243.828-2.07-3.727 3.313-1.728m0 4.627v11.8m0 11.801v-5.9M20.32 25.537v-8.771m0 0 10.352-6.211 10.765 6.21m-21.117 0-2.07 1.243-2.07-3.313L30.672 6l3.726 2.174m7.04 8.592v8.623m0-8.623 2.07 1.242 2.07-3.313-3.726-2.174-3.727-2.173M12.039 30.43v4.14h4.14v-4.14h-4.14zm0 7.039v3.312h4.14V37.47h-4.14zm0 7.453v3.726h4.14v-3.726h-4.14zm33.54 0v3.726h4.14v-3.726h-4.14zm0-4.14v-3.313h4.14v3.312h-4.14zm0-6.212v-4.14h4.14v4.14h-4.14zm-20.29-4.14v4.14h4.14v-4.14h-4.14zm0 7.039h4.14v3.312h-4.14V37.47zm7.453-7.04h3.313v4.141h-3.313v-4.14zm0 7.04h3.313v3.312h-3.313V37.47zM25.29 27.53v-3.726h4.14v3.726h-4.14zm7.453 0v-3.726h3.313v3.726h-3.313zm-7.453-6.625v-4.968h4.14v4.968h-4.14zm7.453-4.968v4.968h3.313v-4.968h-3.313z" stroke="#424B5A" stroke-width="1.75" stroke-linecap="round" stroke-linejoin="round"/>
</svg>
