<svg width="64" height="64" viewBox="0 0 64 64" fill="none" xmlns="http://www.w3.org/2000/svg">
<path fill-rule="evenodd" clip-rule="evenodd" d="M3.00488 45.605H24.5549V60.665H3.00488V45.605ZM4.75488 47.355V58.915H22.8049V47.355H4.75488Z" fill="#424B5A"/>
<path fill-rule="evenodd" clip-rule="evenodd" d="M3.00488 32.295H24.5549V47.355H3.00488V32.295ZM4.75488 34.045V45.605H22.8049V34.045H4.75488Z" fill="#424B5A"/>
<path fill-rule="evenodd" clip-rule="evenodd" d="M58.73 32.325C59.2132 32.325 59.605 32.7168 59.605 33.2V36.09C59.605 36.5733 59.2132 36.965 58.73 36.965C58.2467 36.965 57.855 36.5733 57.855 36.09V33.2C57.855 32.7168 58.2467 32.325 58.73 32.325Z" fill="#424B5A"/>
<path fill-rule="evenodd" clip-rule="evenodd" d="M58.73 39.185C59.2132 39.185 59.605 39.5767 59.605 40.06V59.82C59.605 60.3032 59.2132 60.695 58.73 60.695C58.2467 60.695 57.855 60.3032 57.855 59.82V40.06C57.855 39.5767 58.2467 39.185 58.73 39.185Z" fill="#424B5A"/>
<path fill-rule="evenodd" clip-rule="evenodd" d="M3.00488 27.005H59.6149V34.035H3.00488V27.005ZM4.75488 28.755V32.285H57.8649V28.755H4.75488Z" fill="#424B5A"/>
<path fill-rule="evenodd" clip-rule="evenodd" d="M13.2148 3.005H49.3948V21.925H13.2148V11.79C13.2148 11.3068 13.6066 10.915 14.0898 10.915C14.5731 10.915 14.9648 11.3068 14.9648 11.79V20.175H47.6448V4.755H14.9648V8.42C14.9648 8.90325 14.5731 9.295 14.0898 9.295C13.6066 9.295 13.2148 8.90325 13.2148 8.42V3.005Z" fill="#424B5A"/>
<path fill-rule="evenodd" clip-rule="evenodd" d="M28.8948 20.315H33.7148V26.135H28.8948V20.315ZM30.6448 22.065V24.385H31.9648V22.065H30.6448Z" fill="#424B5A"/>
<path fill-rule="evenodd" clip-rule="evenodd" d="M21.615 24.395H40.985V28.675H21.615V24.395ZM23.365 26.145V26.925H39.235V26.145H23.365Z" fill="#424B5A"/>
<path fill-rule="evenodd" clip-rule="evenodd" d="M10.5549 35.82C10.5549 35.1214 11.1213 34.555 11.8199 34.555H15.6899C16.3886 34.555 16.9549 35.1213 16.9549 35.82V36.31C16.9549 37.0086 16.3886 37.575 15.6899 37.575H11.8199C11.1213 37.575 10.5549 37.0086 10.5549 36.31V35.82Z" fill="#424B5A"/>
<path fill-rule="evenodd" clip-rule="evenodd" d="M10.5249 49.13C10.5249 48.4313 11.0913 47.865 11.7899 47.865H15.6599C16.3585 47.865 16.9249 48.4313 16.9249 49.13V49.62C16.9249 50.3186 16.3585 50.885 15.6599 50.885H11.7899C11.0913 50.885 10.5249 50.3186 10.5249 49.62V49.13Z" fill="#424B5A"/>
</svg>
