<svg width="49" height="49" viewBox="0 0 49 49" fill="none" xmlns="http://www.w3.org/2000/svg">
<path fill-rule="evenodd" clip-rule="evenodd" d="M25.2759 1.77459C19.4773 1.50385 13.7972 3.47726 9.41542 7.28492C5.0337 11.0926 2.28714 16.4418 1.74625 22.2216C1.70122 22.7027 1.27468 23.0562 0.793529 23.0112C0.312382 22.9662 -0.0411623 22.5396 0.00386548 22.0585C0.586686 15.8307 3.54615 10.0668 8.26755 5.96398C12.9889 1.86115 19.1094 -0.265234 25.3575 0.0264938C31.6057 0.318221 37.5014 3.00564 41.82 7.53055C46.1385 12.0555 48.548 18.07 48.548 24.325C48.548 30.58 46.1385 36.5946 41.82 41.1195C37.5014 45.6444 31.6057 48.3318 25.3575 48.6236C19.1094 48.9153 12.9889 46.7889 8.26755 42.6861C3.54615 38.5832 0.586686 32.8193 0.00386548 26.5916C-0.0411623 26.1104 0.312382 25.6839 0.793529 25.6388C1.27468 25.5938 1.70122 25.9473 1.74625 26.4285C2.28714 32.2082 5.0337 37.5575 9.41542 41.3651C13.7972 45.1728 19.4773 47.1462 25.2759 46.8755C31.0746 46.6047 36.5461 44.1106 40.554 39.9113C44.5619 35.7119 46.798 30.13 46.798 24.325C46.798 18.52 44.5619 12.9382 40.554 8.73878C36.5461 4.53941 31.0746 2.04533 25.2759 1.77459Z" fill="#424B5A"/>
<path fill-rule="evenodd" clip-rule="evenodd" d="M36.4951 22.255C35.0509 22.255 33.8801 23.4258 33.8801 24.87C33.8801 26.3142 35.0509 27.485 36.4951 27.485C37.9394 27.485 39.1101 26.3142 39.1101 24.87C39.1101 23.4258 37.9394 22.255 36.4951 22.255ZM32.1301 24.87C32.1301 22.4593 34.0844 20.505 36.4951 20.505C38.9059 20.505 40.8601 22.4593 40.8601 24.87C40.8601 27.2807 38.9059 29.235 36.4951 29.235C34.0844 29.235 32.1301 27.2807 32.1301 24.87Z" fill="#424B5A"/>
<path fill-rule="evenodd" clip-rule="evenodd" d="M24.415 22.255C22.9708 22.255 21.8 23.4258 21.8 24.87C21.8 26.3142 22.9708 27.485 24.415 27.485C25.8593 27.485 27.0301 26.3142 27.0301 24.87C27.0301 23.4258 25.8593 22.255 24.415 22.255ZM20.05 24.87C20.05 22.4593 22.0043 20.505 24.415 20.505C26.8258 20.505 28.7801 22.4593 28.7801 24.87C28.7801 27.2807 26.8258 29.235 24.415 29.235C22.0043 29.235 20.05 27.2807 20.05 24.87Z" fill="#424B5A"/>
<path fill-rule="evenodd" clip-rule="evenodd" d="M12.2051 22.255C10.7609 22.255 9.59009 23.4258 9.59009 24.87C9.59009 26.3142 10.7609 27.485 12.2051 27.485C13.6493 27.485 14.8201 26.3142 14.8201 24.87C14.8201 23.4258 13.6493 22.255 12.2051 22.255ZM7.84009 24.87C7.84009 22.4593 9.79436 20.505 12.2051 20.505C14.6158 20.505 16.5701 22.4593 16.5701 24.87C16.5701 27.2807 14.6158 29.235 12.2051 29.235C9.79436 29.235 7.84009 27.2807 7.84009 24.87Z" fill="#424B5A"/>
</svg>
