<svg width="24" height="24" viewBox="0 0 24 24" fill="none" xmlns="http://www.w3.org/2000/svg">
<path d="M12.3 11.72C12.8336 11.2581 13.2616 10.6869 13.5549 10.045C13.8482 9.40316 14 8.70571 14 8C14 6.67392 13.4732 5.40215 12.5355 4.46447C11.5979 3.52678 10.3261 3 9 3C7.67392 3 6.40215 3.52678 5.46447 4.46447C4.52678 5.40215 4 6.67392 4 8C3.99999 8.70571 4.1518 9.40316 4.44513 10.045C4.73845 10.6869 5.16642 11.2581 5.7 11.72C4.30014 12.3539 3.11247 13.3775 2.27898 14.6685C1.4455 15.9596 1.00147 17.4633 1 19C1 19.2652 1.10536 19.5196 1.29289 19.7071C1.48043 19.8946 1.73478 20 2 20C2.26522 20 2.51957 19.8946 2.70711 19.7071C2.89464 19.5196 3 19.2652 3 19C3 17.4087 3.63214 15.8826 4.75736 14.7574C5.88258 13.6321 7.4087 13 9 13C10.5913 13 12.1174 13.6321 13.2426 14.7574C14.3679 15.8826 15 17.4087 15 19C15 19.2652 15.1054 19.5196 15.2929 19.7071C15.4804 19.8946 15.7348 20 16 20C16.2652 20 16.5196 19.8946 16.7071 19.7071C16.8946 19.5196 17 19.2652 17 19C16.9985 17.4633 16.5545 15.9596 15.721 14.6685C14.8875 13.3775 13.6999 12.3539 12.3 11.72ZM9 11C8.40666 11 7.82664 10.8241 7.33329 10.4944C6.83994 10.1648 6.45542 9.69623 6.22836 9.14805C6.0013 8.59987 5.94189 7.99667 6.05764 7.41473C6.1734 6.83279 6.45912 6.29824 6.87868 5.87868C7.29824 5.45912 7.83279 5.1734 8.41473 5.05764C8.99667 4.94189 9.59987 5.0013 10.1481 5.22836C10.6962 5.45542 11.1648 5.83994 11.4944 6.33329C11.8241 6.82664 12 7.40666 12 8C12 8.79565 11.6839 9.55871 11.1213 10.1213C10.5587 10.6839 9.79565 11 9 11ZM18.74 11.32C19.38 10.5993 19.798 9.70905 19.9438 8.75634C20.0896 7.80362 19.9569 6.82907 19.5618 5.95C19.1666 5.07093 18.5258 4.3248 17.7165 3.80142C16.9071 3.27805 15.9638 2.99974 15 3C14.7348 3 14.4804 3.10536 14.2929 3.29289C14.1054 3.48043 14 3.73478 14 4C14 4.26522 14.1054 4.51957 14.2929 4.70711C14.4804 4.89464 14.7348 5 15 5C15.7956 5 16.5587 5.31607 17.1213 5.87868C17.6839 6.44129 18 7.20435 18 8C17.9986 8.52524 17.8593 9.0409 17.5961 9.49542C17.3328 9.94994 16.9549 10.3274 16.5 10.59C16.3517 10.6755 16.2279 10.7977 16.1404 10.9447C16.0528 11.0918 16.0045 11.2589 16 11.43C15.9958 11.5998 16.0349 11.7678 16.1137 11.9183C16.1924 12.0687 16.3081 12.1967 16.45 12.29L16.84 12.55L16.97 12.62C18.1754 13.1917 19.1923 14.096 19.901 15.2263C20.6096 16.3566 20.9805 17.6659 20.97 19C20.97 19.2652 21.0754 19.5196 21.2629 19.7071C21.4504 19.8946 21.7048 20 21.97 20C22.2352 20 22.4896 19.8946 22.6771 19.7071C22.8646 19.5196 22.97 19.2652 22.97 19C22.9782 17.4654 22.5938 15.9543 21.8535 14.6101C21.1131 13.2659 20.0413 12.1333 18.74 11.32Z" fill="#AAAAAA"/>
</svg>
