<svg width="256" height="612" viewBox="0 0 256 612" fill="none" xmlns="http://www.w3.org/2000/svg">
<mask id="mask0_158_1090" style="mask-type:alpha" maskUnits="userSpaceOnUse" x="0" y="0" width="256" height="612">
<rect width="256" height="612" rx="24" fill="white"/>
</mask>
<g mask="url(#mask0_158_1090)">
<path opacity="0.5" d="M209.164 401.229C201.837 317.15 268.136 285.026 180.642 220.207C93.1488 155.388 107.105 48.1452 179.224 10.7513C297.618 -50.6674 438.302 74.2904 390.208 213.001C342.114 351.712 434.168 381.078 364.472 468.162C333.284 507.274 219.301 517.23 209.096 400.825" fill="#A8C3E4"/>
<path opacity="0.75" d="M418.538 474.499C367.281 516.904 316.754 488.285 313.891 574.065C311.028 659.845 235.215 698.818 178.663 668.784C85.8046 619.493 103.857 472.279 215.369 441.358C326.881 410.436 304.705 337.575 392.404 343.785C431.74 346.5 489.242 415.975 418.307 474.724" fill="#174CBB"/>
<path opacity="0.5" d="M134.224 196.661C171.256 186.948 161.04 147.732 140.157 138.666C127.346 133.105 114.546 135.898 105.217 146.292C90.055 163.185 117.623 201.047 134.224 196.661Z" fill="#246DFF"/>
</g>
</svg>
