<svg width="256" height="400" viewBox="0 0 256 400" fill="none" xmlns="http://www.w3.org/2000/svg">
<mask id="mask0_134_1817" style="mask-type:alpha" maskUnits="userSpaceOnUse" x="0" y="0" width="256" height="400">
<rect width="256" height="400" rx="24" fill="white"/>
</mask>
<g mask="url(#mask0_134_1817)">
<path opacity="0.5" d="M212.221 308.568C203.279 224.645 268.948 191.253 180.225 128.128C91.5016 65.0022 103.394 -42.4888 174.78 -81.2622C291.972 -144.945 435.032 -22.7152 389.613 116.895C344.195 256.505 436.796 284.095 368.787 372.503C338.357 412.207 224.586 424.353 212.145 308.166" fill="#A8C3E4"/>
<path opacity="0.75" d="M89.6829 382.115C148.686 351.39 192.096 389.959 212.867 306.682C233.637 223.406 315.932 201.18 364.937 242.395C445.409 310.047 396.916 450.211 281.401 457.085C165.885 463.959 172.304 539.849 87.8532 515.404C49.9584 504.509 8.28709 424.528 89.9564 381.944" fill="#174CBB"/>
<path opacity="0.5" d="M144.908 113.666C173.824 88.5741 147.316 57.9226 124.576 59.0291C110.627 59.7079 100.382 67.8753 96.6133 81.3232C90.4874 103.18 131.96 124.942 144.908 113.666Z" fill="#246DFF"/>
</g>
</svg>
