<svg width="256" height="534" viewBox="0 0 256 534" fill="none" xmlns="http://www.w3.org/2000/svg">
<mask id="mask0_163_558" style="mask-type:alpha" maskUnits="userSpaceOnUse" x="0" y="0" width="256" height="534">
<rect width="256" height="534" rx="24" fill="white"/>
</mask>
<g mask="url(#mask0_163_558)">
<path opacity="0.5" d="M96.021 453.352C148.404 387.177 218.668 409.322 199.53 302.129C180.392 194.935 264.151 126.524 342.265 148.831C470.523 185.429 487.065 372.866 356.88 440.731C226.695 508.596 273.484 593.136 163.026 608.629C113.499 615.666 23.7719 544.671 96.2488 453.012" fill="#A8C3E4"/>
<path opacity="0.75" d="M256.387 -42.3306C301.677 28.1668 258.262 87.0306 365.098 103.559C471.933 120.088 509.225 220.774 463.131 286.959C387.475 395.638 206.111 350.842 184.276 206.729C162.441 62.6161 67.9804 79.3486 88.9839 -29.3802C98.3165 -78.1606 193.876 -139.58 256.633 -42.0072" fill="#174CBB"/>
<path opacity="0.5" d="M147.224 437.661C184.256 427.948 174.04 388.732 153.157 379.666C140.346 374.105 127.545 376.898 118.217 387.292C103.055 404.184 130.623 442.047 147.224 437.661Z" fill="#246DFF"/>
</g>
</svg>
