<svg width="256" height="712" viewBox="0 0 256 712" fill="none" xmlns="http://www.w3.org/2000/svg">
<mask id="mask0_134_1853" style="mask-type:alpha" maskUnits="userSpaceOnUse" x="0" y="0" width="256" height="712">
<rect width="256" height="712" rx="24" fill="white"/>
</mask>
<g mask="url(#mask0_134_1853)">
<path opacity="0.5" d="M212.221 402.568C203.279 318.645 268.948 285.253 180.225 222.128C91.5016 159.003 103.394 51.5116 174.78 12.7382C291.972 -50.9451 435.032 71.2852 389.613 210.895C344.195 350.505 436.796 378.096 368.787 466.503C338.357 506.207 224.586 518.353 212.145 402.166" fill="#A8C3E4"/>
<path opacity="0.75" d="M406.104 437.557C368.881 492.692 312.335 479.477 333.77 562.585C355.204 645.694 293.453 704.458 230.728 691.584C127.74 670.469 103.56 524.137 201.832 463.034C300.105 401.931 258.289 338.276 344.181 319.512C382.687 311.027 457.443 361.475 405.946 437.838" fill="#174CBB"/>
<path opacity="0.5" d="M131.224 131.659C168.256 121.946 158.04 82.7309 137.157 73.6648C124.346 68.1033 111.545 70.8969 102.217 81.2905C87.0547 98.1829 114.623 136.045 131.224 131.659Z" fill="#246DFF"/>
</g>
</svg>
