<svg width="256" height="658" viewBox="0 0 256 658" fill="none" xmlns="http://www.w3.org/2000/svg">
<mask id="mask0_199_445" style="mask-type:alpha" maskUnits="userSpaceOnUse" x="0" y="0" width="256" height="658">
<rect width="256" height="658" rx="24" fill="white"/>
</mask>
<g mask="url(#mask0_199_445)">
<path opacity="0.5" d="M432.754 387.628C378.465 452.247 308.876 428.064 324.882 535.77C340.888 643.475 255.17 709.417 177.74 684.843C50.6026 644.523 39.53 456.683 171.638 392.641C303.745 328.598 259.439 242.73 370.303 230.463C420.014 224.873 507.633 298.453 432.516 387.961" fill="#A8C3E4"/>
<path opacity="0.75" d="M356.099 45.1798C377.91 126.083 318.706 169.033 415.517 217.143C512.328 265.254 517.372 372.506 453.398 421.621C348.379 502.281 189.101 404.657 211.94 260.7C234.78 116.743 139.689 104.079 192.637 6.81899C216.306 -36.8435 325.979 -66.435 356.236 45.5625" fill="#174CBB"/>
<path opacity="0.5" d="M107.224 490.661C144.256 480.948 134.04 441.732 113.157 432.666C100.346 427.105 87.5455 429.898 78.2167 440.292C63.0547 457.185 90.623 495.047 107.224 490.661Z" fill="#246DFF"/>
</g>
</svg>
