<svg width="256" height="678" viewBox="0 0 256 678" fill="none" xmlns="http://www.w3.org/2000/svg">
<mask id="mask0_167_603" style="mask-type:alpha" maskUnits="userSpaceOnUse" x="0" y="0" width="256" height="678">
<rect width="256" height="678" rx="24" fill="white"/>
</mask>
<g mask="url(#mask0_167_603)">
<path opacity="0.5" d="M92.8795 513.131C139.722 442.926 211.551 459.299 183.782 354.011C156.014 248.723 233.948 173.744 313.614 189.642C444.418 215.717 476.108 401.195 351.856 479.395C227.604 557.595 281.095 638.062 172.257 662.463C123.464 673.493 28.2749 610.009 93.079 512.774" fill="#A8C3E4"/>
<path opacity="0.75" d="M275.438 -11.6086C307.237 46.8232 269.468 90.931 353.11 110.176C436.752 129.421 460.478 211.296 420.166 261.046C353.996 342.741 212.969 296.818 203.985 181.447C195.001 66.0765 119.241 73.8818 142.138 -11.0019C152.339 -49.0896 231.545 -92.2156 275.614 -11.3383" fill="#174CBB"/>
<path opacity="0.5" d="M192.209 433.36C174.772 386.616 125.262 404.99 116.239 433.253C110.703 450.591 116 466.822 130.696 477.558C154.581 495.007 200.066 454.311 192.209 433.36Z" fill="#246DFF"/>
</g>
</svg>
