<svg width="256" height="492" viewBox="0 0 256 492" fill="none" xmlns="http://www.w3.org/2000/svg">
<mask id="mask0_168_517" style="mask-type:alpha" maskUnits="userSpaceOnUse" x="0" y="0" width="256" height="492">
<rect width="256" height="492" rx="24" fill="white"/>
</mask>
<g mask="url(#mask0_168_517)">
<path opacity="0.5" d="M400.754 335.628C346.465 400.247 276.876 376.064 292.882 483.77C308.888 591.475 223.17 657.417 145.74 632.843C18.6026 592.523 7.53003 404.683 139.638 340.641C271.745 276.598 227.439 190.73 338.303 178.463C388.014 172.873 475.633 246.453 400.516 335.961" fill="#A8C3E4"/>
<path opacity="0.75" d="M295.786 -12.7269C341.791 57.3056 298.979 116.609 405.977 132.048C512.975 147.488 551.29 247.789 505.874 314.439C431.329 423.884 249.517 380.938 226.215 237.055C202.913 93.1713 108.628 110.865 128.523 1.92801C137.359 -46.9449 232.287 -109.334 296.035 -12.406" fill="#174CBB"/>
<path opacity="0.5" d="M162.224 363.661C199.256 353.948 189.04 314.732 168.157 305.666C155.346 300.105 142.545 302.898 133.217 313.292C118.055 330.184 145.623 368.047 162.224 363.661Z" fill="#246DFF"/>
</g>
</svg>
