<svg width="256" height="726" viewBox="0 0 256 726" fill="none" xmlns="http://www.w3.org/2000/svg">
    <mask id="aycjkpx73a" style="mask-type:alpha" maskUnits="userSpaceOnUse" x="0" y="0" width="256" height="726">
        <rect width="256" height="726" rx="24" fill="#fff"/>
    </mask>
    <g mask="url(#aycjkpx73a)">
        <path opacity=".5" d="M217.334 441.072c-16.982-82.672 45.166-122.233-49.225-176.52-94.39-54.288-92.905-162.424-25.585-207.892 110.514-74.674 264.681 33.21 232.919 176.545-31.762 143.335 63.066 161.88 3.887 256.426-26.465 42.45-138.536 65.497-162.11-48.952" fill="#E9D9E8"/>
        <path opacity=".75" d="M317.336 465.141c-14.515 64.922-71.98 73.273-21.671 142.811 50.308 69.537 14.287 146.796-48.806 157.722-103.585 17.959-179.542-109.43-110.377-202.206 69.165-92.776 6.988-136.759 80.092-185.599 32.748-21.963 120.764-2.305 100.716 87.592" fill="#4B273A"/>
        <path opacity=".5" d="M116.224 226.661c37.032-9.713 26.816-48.929 5.933-57.995-12.811-5.561-25.611-2.768-34.94 7.626-15.162 16.893 12.406 54.755 29.007 50.369z" fill="#4B273A"/>
    </g>
</svg>
