<svg width="256" height="640" viewBox="0 0 256 640" fill="none" xmlns="http://www.w3.org/2000/svg">
<mask id="mask0_134_1829" style="mask-type:alpha" maskUnits="userSpaceOnUse" x="0" y="0" width="256" height="640">
<rect width="256" height="640" rx="24" fill="white"/>
</mask>
<g mask="url(#mask0_134_1829)">
<path opacity="0.5" d="M212.221 402.568C203.279 318.645 268.948 285.253 180.225 222.128C91.5016 159.003 103.394 51.5116 174.78 12.7383C291.972 -50.9451 435.032 71.2852 389.613 210.895C344.195 350.505 436.796 378.096 368.787 466.503C338.357 506.208 224.586 518.353 212.145 402.166" fill="#A8C3E4"/>
<path opacity="0.75" d="M388.134 410.512C364.946 472.864 306.879 473.343 347.29 549.062C387.7 624.782 341.531 696.439 277.539 698.705C172.475 702.447 114.501 565.93 195.613 483.395C276.725 400.86 221.089 348.848 300.143 310.377C335.567 293.06 420.103 324.477 388.045 410.822" fill="#174CBB"/>
<path opacity="0.5" d="M131.224 131.659C168.256 121.946 158.04 82.7309 137.157 73.6649C124.346 68.1033 111.545 70.897 102.217 81.2905C87.0547 98.183 114.623 136.045 131.224 131.659Z" fill="#246DFF"/>
</g>
</svg>
