<svg width="16" height="16" viewBox="0 0 16 16" fill="none" xmlns="http://www.w3.org/2000/svg">
<path d="M1.93593 12.0422L1.93472 12.0409C1.37641 11.4273 1.04782 10.5051 1.00478 9.36062C0.961964 8.22188 1.20747 6.93824 1.71063 5.71251C2.73634 3.21384 4.68023 1.26676 6.96437 1.03162C8.95024 0.827184 10.922 1.63571 12.4447 2.9597C13.982 4.29641 14.9191 6.03239 14.9934 7.49467C15.1205 9.99444 13.3858 12.8497 10.789 14.2147C9.5183 14.8826 8.07917 15.1702 6.59684 14.8978C5.11756 14.626 3.51244 13.7811 1.93593 12.0422Z" fill="white" stroke="#246DFF" stroke-width="2"/>
<path d="M4.59754 10.357C7.99529 14.1045 12.1459 10.669 11.9961 7.72195C11.9041 5.91407 9.75465 3.77923 7.43098 4.01844C4.63399 4.30638 3.07056 8.67884 4.59754 10.357Z" fill="#246DFF"/>
</svg>
