<svg width="66" height="64" viewBox="0 0 66 64" fill="none" xmlns="http://www.w3.org/2000/svg">
    <path d="M65 54.5H1" stroke="#424B5A" stroke-width="1.75" stroke-linecap="round"/>
    <path d="M10.5 54.5v-14m27 14V51m0-10.5v7m-22 7v-11h7v11m3.5-7.25V51h6v-3.75m-6 0V43.5h6v3.75m-6 0h6M20.5 48.5v.5M24.412 26.465a1.75 1.75 0 0 0-2.094.015l-4.125 3.125-2.062 1.563-2.063 1.562-8.25 6.25a1.75 1.75 0 0 0 2.114 2.79L23.39 30.059l15.947 11.726a1.75 1.75 0 0 0 2.074-2.82l-17-12.5zM53.5 54.5v-16m0-8v5m0 3L56 36m-2.5 2.5v-3m0 0-2-2M44.073 53.5v-24m0-8v5m0 3 2.5-2.5m-2.5 2.5v-3m0 0-2-2M44.073 35c-3.868 0-8.073-1.5-6.97-7.342 0 0 .509-3.502 1.47-7.158.946-3.598 1.5-6 2-7.5s1.985-3 3.5-3 3 1.5 3.5 3 1.524 5.062 2.427 8.5" stroke="#424B5A" stroke-width="1.75" stroke-linecap="round" stroke-linejoin="round"/>
    <path d="M60.47 36.658C61.26 40.445 57.368 43 53.5 43s-7.76-2.555-6.97-6.342c0 0 .509-3.502 1.47-7.158.946-3.598 1.5-6 2-7.5s1.985-3 3.5-3 3 1.5 3.5 3 1.097 3.562 2 7" stroke="#424B5A" stroke-width="1.75" stroke-linecap="round"/>
    <path d="M18.148 19.087h-6c.833-1 1.5-3.5-1-5.5-2.277-1.822-5.648.413-5 3C4.5 16 3.539 16.764 3 18c-.653 1.496-.352 3.087 2.148 3.587m4.352 0h11" stroke="#424B5A" stroke-width="1.75" stroke-linecap="round" stroke-linejoin="round"/>
</svg>
