<svg width="63" height="46" viewBox="0 0 63 46" fill="none" xmlns="http://www.w3.org/2000/svg">
<path fill-rule="evenodd" clip-rule="evenodd" d="M30.725 0.219382C31.0903 -0.0730834 31.6096 -0.0731322 31.9749 0.219265L41.77 8.05881V3.7C41.77 3.14772 42.2178 2.7 42.77 2.7H47.74C48.2923 2.7 48.74 3.14772 48.74 3.7V13.6397L62.3251 24.5195C62.7562 24.8647 62.8258 25.494 62.4806 25.9251C62.1353 26.3562 61.506 26.4258 61.0749 26.0805L47.1149 14.9005C46.878 14.7108 46.74 14.4236 46.74 14.12V4.7H43.77V10.14C43.77 10.5244 43.5496 10.8749 43.2031 11.0413C42.8566 11.2078 42.4453 11.161 42.1452 10.9207L31.3502 2.28094L1.62505 26.0806C1.19392 26.4258 0.564601 26.3561 0.219419 25.925C-0.125764 25.4939 -0.0560954 24.8646 0.375028 24.5194L30.725 0.219382Z" fill="#424B5A"/>
<path fill-rule="evenodd" clip-rule="evenodd" d="M8.76001 37.38C9.31229 37.38 9.76001 37.8277 9.76001 38.38V44.86C9.76001 45.4123 9.31229 45.86 8.76001 45.86C8.20772 45.86 7.76001 45.4123 7.76001 44.86V38.38C7.76001 37.8277 8.20772 37.38 8.76001 37.38Z" fill="#424B5A"/>
<path fill-rule="evenodd" clip-rule="evenodd" d="M8.76001 18.14C9.31229 18.14 9.76001 18.5877 9.76001 19.14V32C9.76001 32.5523 9.31229 33 8.76001 33C8.20772 33 7.76001 32.5523 7.76001 32V19.14C7.76001 18.5877 8.20772 18.14 8.76001 18.14Z" fill="#424B5A"/>
<path fill-rule="evenodd" clip-rule="evenodd" d="M53.3801 18.14C53.9324 18.14 54.3801 18.5877 54.3801 19.14V44.86C54.3801 45.4123 53.9324 45.86 53.3801 45.86C52.8278 45.86 52.3801 45.4123 52.3801 44.86V19.14C52.3801 18.5877 52.8278 18.14 53.3801 18.14Z" fill="#424B5A"/>
<path fill-rule="evenodd" clip-rule="evenodd" d="M7.76001 44.86C7.76001 44.3077 8.20772 43.86 8.76001 43.86H53.38C53.9323 43.86 54.38 44.3077 54.38 44.86C54.38 45.4123 53.9323 45.86 53.38 45.86H8.76001C8.20772 45.86 7.76001 45.4123 7.76001 44.86Z" fill="#424B5A"/>
<path fill-rule="evenodd" clip-rule="evenodd" d="M27.15 19.56C25.2888 19.56 23.78 21.0688 23.78 22.93V31.34C23.78 33.2012 25.2888 34.71 27.15 34.71H35.56C37.4212 34.71 38.93 33.2012 38.93 31.34V22.93C38.93 21.0688 37.4212 19.56 35.56 19.56H27.15ZM21.78 22.93C21.78 19.9642 24.1843 17.56 27.15 17.56H35.56C38.5258 17.56 40.93 19.9642 40.93 22.93V31.34C40.93 34.3058 38.5258 36.71 35.56 36.71H27.15C24.1843 36.71 21.78 34.3058 21.78 31.34V22.93Z" fill="#424B5A"/>
<path fill-rule="evenodd" clip-rule="evenodd" d="M31.51 18.14C32.0623 18.14 32.51 18.5877 32.51 19.14V35.07C32.51 35.6223 32.0623 36.07 31.51 36.07C30.9577 36.07 30.51 35.6223 30.51 35.07V19.14C30.51 18.5877 30.9577 18.14 31.51 18.14Z" fill="#424B5A"/>
<path fill-rule="evenodd" clip-rule="evenodd" d="M21.78 27.11C21.78 26.5577 22.2277 26.11 22.78 26.11H39.47C40.0223 26.11 40.47 26.5577 40.47 27.11C40.47 27.6623 40.0223 28.11 39.47 28.11H22.78C22.2277 28.11 21.78 27.6623 21.78 27.11Z" fill="#424B5A"/>
</svg>
