<svg width="52" height="52" viewBox="0 0 52 52" fill="none" xmlns="http://www.w3.org/2000/svg">
<path d="M25.9 50.8C39.6519 50.8 50.8 39.6519 50.8 25.9C50.8 12.1481 39.6519 1 25.9 1C12.1481 1 1 12.1481 1 25.9C1 39.6519 12.1481 50.8 25.9 50.8Z" stroke="#424B5A" stroke-width="1.75" stroke-miterlimit="10"/>
<path d="M16.1099 23.6499C18.0318 23.6499 19.5899 22.0919 19.5899 20.1699C19.5899 18.248 18.0318 16.6899 16.1099 16.6899C14.1879 16.6899 12.6299 18.248 12.6299 20.1699C12.6299 22.0919 14.1879 23.6499 16.1099 23.6499Z" stroke="#424B5A" stroke-width="1.75" stroke-miterlimit="10"/>
<path d="M35.8498 23.4701C37.6723 23.4701 39.1498 21.9927 39.1498 20.1701C39.1498 18.3476 37.6723 16.8701 35.8498 16.8701C34.0273 16.8701 32.5498 18.3476 32.5498 20.1701C32.5498 21.9927 34.0273 23.4701 35.8498 23.4701Z" stroke="#424B5A" stroke-width="1.75" stroke-miterlimit="10"/>
<path d="M38.4098 30.7002C38.4019 34.0236 37.0782 37.2086 34.7282 39.5586C32.3782 41.9086 29.1932 43.2323 25.8698 43.2402C22.5482 43.2296 19.3658 41.9048 17.0179 39.555C14.6701 37.2053 13.3478 34.0218 13.3398 30.7002H38.4098Z" stroke="#424B5A" stroke-width="1.75" stroke-linecap="round" stroke-linejoin="round"/>
</svg>
