<svg width="736" height="732" viewBox="0 0 736 732" fill="none" xmlns="http://www.w3.org/2000/svg">
    <mask id="ar5euqe0ca" style="mask-type:alpha" maskUnits="userSpaceOnUse" x="0" y="0" width="736" height="732">
        <rect width="736" height="732" rx="24" fill="#fff"/>
    </mask>
    <g mask="url(#ar5euqe0ca)">
        <path opacity=".25" d="M122.692 214.28C73.844 283.105 2.517 264.667 27.238 370.712 51.96 476.757-28.105 549.458-107.279 531.269c-129.998-29.836-156.326-216.151-29.871-290.735C-10.694 165.949-61.844 83.973 47.653 62.721c49.09-9.618 142.41 56.584 74.829 151.91" fill="#A8C3E4"/>
        <path opacity=".5" d="M831.958 106.927c35.11 76.081-16.025 128.379 87.5 159.517 103.522 31.138 126.542 136.013 71.741 195.19-89.953 97.178-263.384 27.742-265.088-118.006-1.704-145.748-97.571-142.234-61.739-247.015C680.358 49.59 783.49 1.97 832.157 107.28" fill="#174CBB"/>
        <path opacity=".25" d="M40.224 108.661c37.032-9.713 26.816-48.929 5.933-57.995-12.811-5.561-25.612-2.768-34.94 7.626-15.162 16.892 12.406 54.755 29.007 50.369z" fill="#246DFF"/>
    </g>
</svg>
