<svg width="64" height="47" viewBox="0 0 64 47" fill="none" xmlns="http://www.w3.org/2000/svg">
<path fill-rule="evenodd" clip-rule="evenodd" d="M32.187 0L56.0496 6.47189C56.5082 6.59627 56.7791 7.06886 56.6547 7.52745C56.5303 7.98604 56.0578 8.25697 55.5992 8.1326L32.187 1.78286L8.77473 8.1326C8.31614 8.25697 7.84355 7.98604 7.71918 7.52745C7.5948 7.06886 7.86573 6.59627 8.32432 6.47189L32.187 0Z" fill="#424B5A"/>
<path fill-rule="evenodd" clip-rule="evenodd" d="M8.54956 6.44177C9.02471 6.44177 9.4099 6.82696 9.4099 7.30212V45.2951C9.4099 45.7702 9.02471 46.1554 8.54956 46.1554C8.0744 46.1554 7.68921 45.7702 7.68921 45.2951V7.30212C7.68921 6.82696 8.0744 6.44177 8.54956 6.44177Z" fill="#424B5A"/>
<path fill-rule="evenodd" clip-rule="evenodd" d="M13.9475 15.6451C14.4227 15.6451 14.8079 16.0303 14.8079 16.5055V45.2952C14.8079 45.7703 14.4227 46.1555 13.9475 46.1555C13.4723 46.1555 13.0872 45.7703 13.0872 45.2952V16.5055C13.0872 16.0303 13.4723 15.6451 13.9475 15.6451Z" fill="#424B5A"/>
<path fill-rule="evenodd" clip-rule="evenodd" d="M50.3672 31.092C50.8423 31.092 51.2275 31.4772 51.2275 31.9524V45.2951C51.2275 45.7703 50.8423 46.1555 50.3672 46.1555C49.892 46.1555 49.5068 45.7703 49.5068 45.2951V31.9524C49.5068 31.4772 49.892 31.092 50.3672 31.092Z" fill="#424B5A"/>
<path fill-rule="evenodd" clip-rule="evenodd" d="M50.3672 15.6451C50.8423 15.6451 51.2275 16.0303 51.2275 16.5055V26.2299C51.2275 26.705 50.8423 27.0902 50.3672 27.0902C49.892 27.0902 49.5068 26.705 49.5068 26.2299V16.5055C49.5068 16.0303 49.892 15.6451 50.3672 15.6451Z" fill="#424B5A"/>
<path fill-rule="evenodd" clip-rule="evenodd" d="M55.8242 6.44177C56.2994 6.44177 56.6846 6.82696 56.6846 7.30212V45.2951C56.6846 45.7702 56.2994 46.1554 55.8242 46.1554C55.3491 46.1554 54.9639 45.7702 54.9639 45.2951V7.30212C54.9639 6.82696 55.3491 6.44177 55.8242 6.44177Z" fill="#424B5A"/>
<path fill-rule="evenodd" clip-rule="evenodd" d="M13.0872 16.2892C13.0872 15.8141 13.4723 15.4289 13.9475 15.4289H50.3672C50.8424 15.4289 51.2276 15.8141 51.2276 16.2892C51.2276 16.7644 50.8424 17.1496 50.3672 17.1496H13.9475C13.4723 17.1496 13.0872 16.7644 13.0872 16.2892Z" fill="#424B5A"/>
<path fill-rule="evenodd" clip-rule="evenodd" d="M0 45.2952C0 44.8201 0.385191 44.4349 0.860347 44.4349H63.1397C63.6148 44.4349 64 44.8201 64 45.2952C64 45.7704 63.6148 46.1556 63.1397 46.1556H0.860347C0.385191 46.1556 0 45.7704 0 45.2952Z" fill="#424B5A"/>
<path fill-rule="evenodd" clip-rule="evenodd" d="M17.2266 38.6189C17.2266 38.1437 17.6118 37.7585 18.0869 37.7585H24.7632C25.2384 37.7585 25.6236 38.1437 25.6236 38.6189V45.2952C25.6236 45.7703 25.2384 46.1555 24.7632 46.1555H18.0869C17.6118 46.1555 17.2266 45.7703 17.2266 45.2952V38.6189ZM18.9473 39.4792V44.4348H23.9029V39.4792H18.9473Z" fill="#424B5A"/>
<path fill-rule="evenodd" clip-rule="evenodd" d="M23.9619 38.6189C23.9619 38.1437 24.3471 37.7585 24.8223 37.7585H31.4986C31.9737 37.7585 32.3589 38.1437 32.3589 38.6189V45.2952C32.3589 45.7703 31.9737 46.1555 31.4986 46.1555H24.8223C24.3471 46.1555 23.9619 45.7703 23.9619 45.2952V38.6189ZM25.6826 39.4792V44.4348H30.6382V39.4792H25.6826Z" fill="#424B5A"/>
<path fill-rule="evenodd" clip-rule="evenodd" d="M23.9619 31.9524C23.9619 31.4772 24.3471 31.092 24.8223 31.092H31.4986C31.9737 31.092 32.3589 31.4772 32.3589 31.9524V38.6287C32.3589 39.1038 31.9737 39.489 31.4986 39.489H24.8223C24.3471 39.489 23.9619 39.1038 23.9619 38.6287V31.9524ZM25.6826 32.8127V37.7683H30.6382V32.8127H25.6826Z" fill="#424B5A"/>
<path fill-rule="evenodd" clip-rule="evenodd" d="M23.9619 25.2761C23.9619 24.8009 24.3471 24.4157 24.8223 24.4157H31.4986C31.9737 24.4157 32.3589 24.8009 32.3589 25.2761V31.9524C32.3589 32.4275 31.9737 32.8127 31.4986 32.8127H24.8223C24.3471 32.8127 23.9619 32.4275 23.9619 31.9524V25.2761ZM25.6826 26.1364V31.092H30.6382V26.1364H25.6826Z" fill="#424B5A"/>
<path fill-rule="evenodd" clip-rule="evenodd" d="M30.5891 38.6189C30.5891 38.1437 30.9743 37.7585 31.4495 37.7585H38.1258C38.6009 37.7585 38.9861 38.1437 38.9861 38.6189V45.2952C38.9861 45.7703 38.6009 46.1555 38.1258 46.1555H31.4495C30.9743 46.1555 30.5891 45.7703 30.5891 45.2952V38.6189ZM32.3098 39.4792V44.4348H37.2654V39.4792H32.3098Z" fill="#424B5A"/>
<path fill-rule="evenodd" clip-rule="evenodd" d="M30.5891 31.9524C30.5891 31.4772 30.9743 31.092 31.4495 31.092H38.1258C38.6009 31.092 38.9861 31.4772 38.9861 31.9524V38.6287C38.9861 39.1038 38.6009 39.489 38.1258 39.489H31.4495C30.9743 39.489 30.5891 39.1038 30.5891 38.6287V31.9524ZM32.3098 32.8127V37.7683H37.2654V32.8127H32.3098Z" fill="#424B5A"/>
<path fill-rule="evenodd" clip-rule="evenodd" d="M37.2651 38.6189C37.2651 38.1437 37.6503 37.7585 38.1255 37.7585H44.8018C45.2769 37.7585 45.6621 38.1437 45.6621 38.6189V45.2952C45.6621 45.7703 45.2769 46.1555 44.8018 46.1555H38.1255C37.6503 46.1555 37.2651 45.7703 37.2651 45.2952V38.6189ZM38.9858 39.4792V44.4348H43.9414V39.4792H38.9858Z" fill="#424B5A"/>
<path fill-rule="evenodd" clip-rule="evenodd" d="M14.2327 10.8616C14.2327 10.5901 14.4528 10.37 14.7243 10.37H19.3849C19.6564 10.37 19.8765 10.5901 19.8765 10.8616C19.8765 11.1331 19.6564 11.3532 19.3849 11.3532H14.7243C14.4528 11.3532 14.2327 11.1331 14.2327 10.8616Z" fill="#424B5A"/>
<path fill-rule="evenodd" clip-rule="evenodd" d="M24.1733 10.8616C24.1733 10.5901 24.3934 10.37 24.665 10.37H29.3354C29.6069 10.37 29.8271 10.5901 29.8271 10.8616C29.8271 11.1331 29.6069 11.3532 29.3354 11.3532H24.665C24.3934 11.3532 24.1733 11.1331 24.1733 10.8616Z" fill="#424B5A"/>
<path fill-rule="evenodd" clip-rule="evenodd" d="M34.0354 10.8616C34.0354 10.5901 34.2555 10.37 34.527 10.37H39.1975C39.469 10.37 39.6891 10.5901 39.6891 10.8616C39.6891 11.1331 39.469 11.3532 39.1975 11.3532H34.527C34.2555 11.3532 34.0354 11.1331 34.0354 10.8616Z" fill="#424B5A"/>
<path fill-rule="evenodd" clip-rule="evenodd" d="M44.4971 10.8616C44.4971 10.5901 44.7172 10.37 44.9887 10.37H49.6592C49.9307 10.37 50.1508 10.5901 50.1508 10.8616C50.1508 11.1331 49.9307 11.3532 49.6592 11.3532H44.9887C44.7172 11.3532 44.4971 11.1331 44.4971 10.8616Z" fill="#424B5A"/>
</svg>
