<svg id="Layer_1" data-name="Layer 1" xmlns="http://www.w3.org/2000/svg" xmlns:xlink="http://www.w3.org/1999/xlink" viewBox="0 0 64.4 24.86"><defs><style>.cls-1{fill:none;}.cls-2{clip-path:url(#clip-path);}.cls-3{fill:#00263e;}</style><clipPath id="clip-path"><path class="cls-1" d="M-229.36,192c36.68-32.67-32.38-133.89,15.74-127.75,24.73,3.15,130.91-12.49,152.15.87,26.3,16.54,134.72-16.42,167-10.14C147.17,63,261,72,303.41,73.17c32.48.92-18.78,193.65,5.13,215.65,45,41.42,78.26,107.49,63.68,169.59-13.87,59.11-68.19,89.05-125.66,92-132.55,6.9-235.2,154.34-374,108C-212.46,630-258.6,539.18-269.09,455c-14-111.91-10.06-218.64,39.73-263"/></clipPath></defs><g class="cls-2"><image width="3903" height="5140" transform="translate(-712.63 -200.64) scale(0.38)" xlink:href="../../../V2_Booklet/_photos/Centered_UI_updated.png"/></g><path class="cls-3" d="M2.92,16.19c.8,1.13,2.67.23,3.69-.08A92.47,92.47,0,0,1,21,13.33c4.95-.65,9.89-1.26,14.87-1.65,2.91-.23,5.86-.25,8.78-.44,2.48-.17,8.34-.2,8.33.35a.86.86,0,0,1-.34.18,3.75,3.75,0,0,1-.58.13,7.2,7.2,0,0,1-1.14.07,24.21,24.21,0,0,0-5.13.56c-.46.1-1.08.1-1.07.65,0,.71.76.63,1.13.62,2.14-.05,4.27-.15,6.4-.25s4.06-.1,6.07-.26A2.79,2.79,0,0,0,61,11.93c.26-.56-.48-1.07-.88-1.42A20.22,20.22,0,0,0,57.81,8.9c-1.05-.65-2.13-1.26-3.22-1.84s-2-1.15-3.09-1.64c-.49-.23-1.33-.48-1.63.11-.42.79.3,1.32,1,1.68,1.34.67,4,1.86,3.86,2.27s-3.09,0-4.63,0a173.11,173.11,0,0,0-28,1.81c-3,.44-6.11.74-9.13,1.3a83.9,83.9,0,0,0-8.25,2.13C3.88,15,2.44,15.52,2.92,16.19Z"/></svg>
