<svg id="Icon_Twitter" data-name="Icon / Twitter" xmlns="http://www.w3.org/2000/svg" width="25.174" height="20.457" viewBox="0 0 25.174 20.457">
  <g id="Icons">
    <path id="Path_77281" data-name="Path 77281" d="M48.174,30.741a10.35,10.35,0,0,1-2.965.811A5.161,5.161,0,0,0,47.475,28.7a10.3,10.3,0,0,1-3.28,1.252,5.168,5.168,0,0,0-8.93,3.531,5.091,5.091,0,0,0,.133,1.175,14.685,14.685,0,0,1-10.65-5.392,5.175,5.175,0,0,0,1.6,6.895,5.175,5.175,0,0,1-2.343-.643v.063a5.168,5.168,0,0,0,4.147,5.063,5.035,5.035,0,0,1-1.364.182,5.112,5.112,0,0,1-.993-.091,5.161,5.161,0,0,0,4.825,3.587A10.447,10.447,0,0,1,23,46.461,14.678,14.678,0,0,0,45.6,34.1v-.7a10.489,10.489,0,0,0,2.573-2.657" transform="translate(-23 -28.326)"/>
  </g>
</svg>
