<svg xmlns="http://www.w3.org/2000/svg" xmlns:xlink="http://www.w3.org/1999/xlink" width="103" height="38.928" viewBox="0 0 103 38.928">
  <defs>
    <clipPath id="clip-path">
      <rect id="Rectangle_4456" data-name="Rectangle 4456" width="103" height="38.928" fill="none"/>
    </clipPath>
  </defs>
  <g id="Wordmark_R" clip-path="url(#clip-path)">
    <path id="Path_78038" data-name="Path 78038" d="M461.219,0a4.068,4.068,0,0,0-.693,8.078,4.2,4.2,0,0,0,.693.058,4.068,4.068,0,0,0,.674-8.078A4.176,4.176,0,0,0,461.2,0" transform="translate(-369.083 0)" fill="#246eff"/>
    <path id="Path_78039" data-name="Path 78039" d="M461.059,85.4h4.931a1.06,1.06,0,0,0,1.059-1.06V59.66a1.06,1.06,0,0,0-1.059-1.06h-4.931A1.06,1.06,0,0,0,460,59.66V84.338a1.06,1.06,0,0,0,1.059,1.06" transform="translate(-371.389 -47.302)" fill="#246eff"/>
    <path id="Path_78040" data-name="Path 78040" d="M304.183,58.5h-5.374a.983.983,0,0,0-.905,1.35l10.46,24.832a1.021,1.021,0,0,0,.944.617h5.066a1.021,1.021,0,0,0,.944-.617l10.518-24.909a.906.906,0,0,0-.828-1.272h-5.548a.905.905,0,0,0-.848.6L312.274,75.89a.462.462,0,0,1-.867,0l-6.318-16.754a.983.983,0,0,0-.905-.636" transform="translate(-240.461 -47.221)" fill="#246eff"/>
    <path id="Path_78041" data-name="Path 78041" d="M163.8,65.707a.463.463,0,0,1-.462-.559c.462-2.526,3.641-4.781,6.973-4.781s6.511,2.256,6.973,4.781a.463.463,0,0,1-.462.559Zm14.1,8.946a1,1,0,0,0-1.329-.1,10.254,10.254,0,0,1-6.106,2.159,7.706,7.706,0,0,1-7.185-5.591.463.463,0,0,1,.462-.559h19.34a1,1,0,0,0,1-.945q.058-.781.058-1.1A13.8,13.8,0,0,0,170.158,54.2c-7.4,0-13.658,6.439-13.658,14.055a14.2,14.2,0,0,0,13.947,14.4A14.383,14.383,0,0,0,180.463,78.7a1,1,0,0,0,.019-1.446Z" transform="translate(-126.353 -43.748)" fill="#246eff"/>
    <path id="Path_78042" data-name="Path 78042" d="M14.833,31.425a7.039,7.039,0,1,1,6.049-6.054,7.03,7.03,0,0,1-6.049,6.054M6.9,12.9V.925A.925.925,0,0,0,5.952,0H.905A.906.906,0,0,0,0,.905V24.523c.039,7.9,5.972,14.171,13.5,14.286h.116a14.065,14.065,0,1,0,.289-28.129,13.365,13.365,0,0,0-7.012,2.2" transform="translate(0 0.001)" fill="#246eff"/>
    <path id="Path_78043" data-name="Path 78043" d="M517.692,183.005a1.812,1.812,0,0,1-1.792-1.812,1.811,1.811,0,1,1,3.622.039,1.831,1.831,0,0,1-1.83,1.774m-1.445-1.754a1.465,1.465,0,0,0,1.483,1.465,1.484,1.484,0,0,0,1.464-1.542,1.475,1.475,0,1,0-2.947.1" transform="translate(-416.521 -144.812)" fill="#246eff"/>
    <path id="Path_78044" data-name="Path 78044" d="M522.94,184.558a.4.4,0,0,1,.154.116l.077.135a.46.46,0,0,1,.039.174.5.5,0,0,1-.058.231.328.328,0,0,1-.193.154.308.308,0,0,1,.154.135.54.54,0,0,1,.039.251v.116a.758.758,0,0,0,0,.154.135.135,0,0,0,.058.1v.039h-.385v-.1a.831.831,0,0,1-.019-.135v-.154a.309.309,0,0,0-.058-.212.27.27,0,0,0-.193-.058h-.328v.636H521.9V184.5h.771l.25.039m-.713.251v.443h.539a.173.173,0,0,0,.1-.193.212.212,0,0,0-.1-.193h-.539Z" transform="translate(-421.365 -148.929)" fill="#246eff"/>
  </g>
</svg>
