<svg width="48" height="48" viewBox="0 0 48 48" fill="none" xmlns="http://www.w3.org/2000/svg">
    <path opacity=".5" d="M9.858 44.415C-12.627 24.028 7.986-.875 25.668.024c10.848.551 23.657 13.448 22.221 27.39-1.727 16.782-27.962 26.163-38.03 17z" fill="#A8C3E4"/>
    <path d="M29.749 16.896a1.356 1.356 0 1 0 0 2.711 1.356 1.356 0 0 0 0-2.711zm5.195 2.733a8.572 8.572 0 0 0-.52-2.744 5.578 5.578 0 0 0-1.31-2 5.308 5.308 0 0 0-1.999-1.298 8.245 8.245 0 0 0-2.744-.531c-1.197-.068-1.581-.068-4.653-.068-3.072 0-3.456 0-4.654.068a8.245 8.245 0 0 0-2.744.53 5.4 5.4 0 0 0-1.999 1.3 5.308 5.308 0 0 0-1.299 1.999 8.245 8.245 0 0 0-.53 2.744c-.068 1.197-.068 1.581-.068 4.653 0 3.072 0 3.456.067 4.654.02.938.2 1.866.531 2.744.276.756.72 1.44 1.299 2a5.398 5.398 0 0 0 2 1.298 8.245 8.245 0 0 0 2.743.53c1.198.069 1.582.069 4.654.069s3.456 0 4.653-.068a8.245 8.245 0 0 0 2.744-.531 5.308 5.308 0 0 0 2-1.299 5.478 5.478 0 0 0 1.31-1.999c.322-.88.497-1.807.52-2.744 0-1.198.067-1.582.067-4.654s0-3.456-.068-4.653zM32.911 28.8a6.336 6.336 0 0 1-.384 2.1c-.18.492-.47.936-.847 1.3-.366.373-.81.662-1.299.847a6.336 6.336 0 0 1-2.1.384c-1.13.056-1.548.067-4.518.067-2.97 0-3.388 0-4.518-.067a6.473 6.473 0 0 1-2.19-.34 3.693 3.693 0 0 1-1.243-.846 3.388 3.388 0 0 1-.836-1.3 6.256 6.256 0 0 1-.452-2.145c0-1.13-.067-1.547-.067-4.518 0-2.97 0-3.388.067-4.517.005-.733.14-1.46.396-2.146.198-.477.504-.902.892-1.242a3.545 3.545 0 0 1 1.242-.904 6.473 6.473 0 0 1 2.146-.384c1.13 0 1.547-.068 4.518-.068 2.97 0 3.388 0 4.517.068a6.34 6.34 0 0 1 2.101.384c.513.19.974.5 1.344.903.37.347.66.772.847 1.243.251.688.381 1.414.384 2.146.057 1.13.068 1.547.068 4.517 0 2.97-.011 3.389-.068 4.518zm-9.193-10.312a5.794 5.794 0 1 0 5.805 5.794 5.781 5.781 0 0 0-5.805-5.794zm0 9.555a3.762 3.762 0 1 1 0-7.523 3.762 3.762 0 0 1 0 7.523z" fill="#246DFF"/>
</svg>
