<svg width="48" height="48" viewBox="0 0 48 48" fill="none" xmlns="http://www.w3.org/2000/svg">
    <path opacity=".5" d="M9.858 44.415C-12.627 24.028 7.986-.875 25.668.024c10.848.551 23.657 13.448 22.221 27.39-1.727 16.782-27.962 26.163-38.03 17z" fill="#A8C3E4"/>
    <path d="M29.83 20.287c-1.012 0-2.007.25-2.898.728a1.129 1.129 0 0 0-1.056-.728H21.36a1.127 1.127 0 0 0-1.13 1.13V34.97a1.129 1.129 0 0 0 1.13 1.13h4.517a1.127 1.127 0 0 0 1.13-1.13v-6.212a1.13 1.13 0 0 1 2.259 0v6.212a1.129 1.129 0 0 0 1.129 1.13h4.518a1.127 1.127 0 0 0 1.129-1.13V26.5a6.22 6.22 0 0 0-6.212-6.213zm3.952 13.553h-2.259v-5.082a3.388 3.388 0 1 0-6.776 0v5.082h-2.259V22.546h2.259v.794a1.13 1.13 0 0 0 2.012.706 3.934 3.934 0 0 1 7.023 2.453v7.341zM17.97 20.287h-4.517a1.127 1.127 0 0 0-1.13 1.13V34.97a1.13 1.13 0 0 0 1.13 1.13h4.517a1.127 1.127 0 0 0 1.13-1.13V21.417a1.129 1.129 0 0 0-1.13-1.13zM16.841 33.84h-2.259V22.546h2.259V33.84zm-1.113-21.975a3.652 3.652 0 1 0-.064 7.293h.032a3.652 3.652 0 1 0 .032-7.293zm-.032 5.034h-.032a1.379 1.379 0 0 1-1.546-1.387c0-.843.632-1.388 1.61-1.388a1.393 1.393 0 0 1 1.577 1.388c0 .842-.632 1.387-1.609 1.387z" fill="#246DFF"/>
</svg>
