<svg width="48" height="48" viewBox="0 0 48 48" fill="none" xmlns="http://www.w3.org/2000/svg">
    <path opacity=".5" d="M9.858 44.415C-12.627 24.028 7.986-.875 25.668.024c10.848.551 23.657 13.448 22.221 27.39-1.727 16.782-27.962 26.163-38.03 17z" fill="#A8C3E4"/>
    <path d="M36.141 15.03a1.13 1.13 0 0 0-1.706-.97 8.446 8.446 0 0 1-2.115.896 5.82 5.82 0 0 0-3.81-1.403 5.909 5.909 0 0 0-5.9 5.719 12.459 12.459 0 0 1-7.696-4.432 1.142 1.142 0 0 0-.968-.412 1.127 1.127 0 0 0-.887.564 5.957 5.957 0 0 0-.273 5.386l-.003.002a1.176 1.176 0 0 0-.559 1.004c-.002.166.008.332.03.496a5.856 5.856 0 0 0 1.771 3.741 1.128 1.128 0 0 0-.075.87 5.878 5.878 0 0 0 2.668 3.3 8.43 8.43 0 0 1-4.054.506 1.129 1.129 0 0 0-.751 2.07 14.617 14.617 0 0 0 7.917 2.328A14.443 14.443 0 0 0 33.807 24.12a14.48 14.48 0 0 0 .605-4.118l-.001-.226a6.517 6.517 0 0 0 1.73-4.745zm-3.734 3.629c-.187.22-.281.504-.264.793.011.186.01.373.01.55a12.224 12.224 0 0 1-.513 3.48 12.068 12.068 0 0 1-11.91 8.954c-.97 0-1.938-.113-2.881-.34a10.707 10.707 0 0 0 3.323-1.765 1.13 1.13 0 0 0-.68-2.017 3.623 3.623 0 0 1-2.5-1.056 5.75 5.75 0 0 0 .503-.119 1.13 1.13 0 0 0-.09-2.195 3.613 3.613 0 0 1-2.542-1.949c.205.028.41.045.616.052a1.153 1.153 0 0 0 1.11-.786 1.13 1.13 0 0 0-.452-1.284 3.608 3.608 0 0 1-1.601-3.243 14.698 14.698 0 0 0 9.271 3.93 1.153 1.153 0 0 0 .923-.405 1.13 1.13 0 0 0 .233-.98 3.563 3.563 0 0 1-.098-.823 3.648 3.648 0 0 1 5.089-3.345c.456.198.865.489 1.203.853a1.12 1.12 0 0 0 1.04.337c.464-.09.921-.212 1.369-.364a7.55 7.55 0 0 1-1.16 1.721z" fill="#246DFF"/>
</svg>
